<mxfile host="app.diagrams.net" modified="2021-05-26T07:58:14.708Z" agent="5.0 (Windows NT 10.0; Win64; x64) AppleWebKit/537.36 (KHTML, like Gecko) Chrome/90.0.4430.212 Safari/537.36" etag="Vse3fhpObznsl7hZL50r" version="14.7.1" type="github">
  <diagram id="o5dr5xK3fGutgbuz_ypI" name="Page-1">
    <mxGraphModel dx="1874" dy="834" grid="1" gridSize="10" guides="1" tooltips="1" connect="1" arrows="1" fold="1" page="1" pageScale="1" pageWidth="827" pageHeight="1169" math="0" shadow="0">
      <root>
        <mxCell id="0" />
        <mxCell id="1" parent="0" />
        <mxCell id="3W4k_Y3KblpX9K18slso-4" value="" style="rounded=0;whiteSpace=wrap;html=1;fillColor=#FFFFFF;strokeColor=#A680B8;" vertex="1" parent="1">
          <mxGeometry x="150" y="270" width="270" height="150" as="geometry" />
        </mxCell>
        <mxCell id="3W4k_Y3KblpX9K18slso-6" value="" style="ellipse;shape=cloud;whiteSpace=wrap;html=1;fillColor=#CCE5FF;" vertex="1" parent="1">
          <mxGeometry x="660" y="210" width="120" height="80" as="geometry" />
        </mxCell>
        <mxCell id="3W4k_Y3KblpX9K18slso-7" value="" style="ellipse;shape=cloud;whiteSpace=wrap;html=1;fillColor=#CCE5FF;" vertex="1" parent="1">
          <mxGeometry x="660" y="375" width="120" height="80" as="geometry" />
        </mxCell>
        <mxCell id="3W4k_Y3KblpX9K18slso-8" value="" style="ellipse;shape=cloud;whiteSpace=wrap;html=1;fillColor=#CCE5FF;" vertex="1" parent="1">
          <mxGeometry x="470" y="305" width="120" height="80" as="geometry" />
        </mxCell>
        <mxCell id="3W4k_Y3KblpX9K18slso-9" value="camera interface&amp;nbsp;" style="rounded=0;whiteSpace=wrap;html=1;strokeColor=#00FF00;" vertex="1" parent="1">
          <mxGeometry x="160" y="290" width="90" height="40" as="geometry" />
        </mxCell>
        <mxCell id="3W4k_Y3KblpX9K18slso-15" value="" style="html=1;shadow=0;dashed=0;align=center;verticalAlign=middle;shape=mxgraph.arrows2.arrow;dy=0.6;dx=40;notch=0;strokeColor=#00FFFF;" vertex="1" parent="1">
          <mxGeometry x="80" y="335" width="60" height="40" as="geometry" />
        </mxCell>
        <mxCell id="3W4k_Y3KblpX9K18slso-17" value="video reader" style="text;html=1;align=center;verticalAlign=middle;resizable=0;points=[];autosize=1;strokeColor=none;" vertex="1" parent="1">
          <mxGeometry x="160" y="430" width="80" height="20" as="geometry" />
        </mxCell>
        <mxCell id="3W4k_Y3KblpX9K18slso-19" value="" style="endArrow=block;startArrow=block;endFill=1;startFill=1;html=1;strokeColor=#00FFFF;" edge="1" parent="1">
          <mxGeometry width="160" relative="1" as="geometry">
            <mxPoint x="423" y="350" as="sourcePoint" />
            <mxPoint x="480" y="350" as="targetPoint" />
          </mxGeometry>
        </mxCell>
        <mxCell id="3W4k_Y3KblpX9K18slso-20" value="" style="endArrow=none;dashed=1;html=1;fillColor=#FF3333;strokeColor=#FF3333;" edge="1" parent="1">
          <mxGeometry width="50" height="50" relative="1" as="geometry">
            <mxPoint x="450" y="450" as="sourcePoint" />
            <mxPoint x="450" y="240" as="targetPoint" />
          </mxGeometry>
        </mxCell>
        <mxCell id="3W4k_Y3KblpX9K18slso-21" value="" style="endArrow=classic;startArrow=classic;html=1;entryX=0.083;entryY=0.75;entryDx=0;entryDy=0;entryPerimeter=0;exitX=0.88;exitY=0.25;exitDx=0;exitDy=0;exitPerimeter=0;strokeColor=#33FFFF;" edge="1" parent="1" source="3W4k_Y3KblpX9K18slso-8" target="3W4k_Y3KblpX9K18slso-6">
          <mxGeometry width="50" height="50" relative="1" as="geometry">
            <mxPoint x="630" y="320" as="sourcePoint" />
            <mxPoint x="700" y="270" as="targetPoint" />
          </mxGeometry>
        </mxCell>
        <mxCell id="3W4k_Y3KblpX9K18slso-22" value="" style="endArrow=classic;startArrow=classic;html=1;exitX=0.942;exitY=0.8;exitDx=0;exitDy=0;exitPerimeter=0;strokeColor=#33FFFF;" edge="1" parent="1" source="3W4k_Y3KblpX9K18slso-8" target="3W4k_Y3KblpX9K18slso-7">
          <mxGeometry width="50" height="50" relative="1" as="geometry">
            <mxPoint x="640" y="370" as="sourcePoint" />
            <mxPoint x="700" y="380" as="targetPoint" />
          </mxGeometry>
        </mxCell>
        <mxCell id="3W4k_Y3KblpX9K18slso-24" value="" style="endArrow=none;dashed=1;html=1;strokeColor=#FF0000;" edge="1" parent="1">
          <mxGeometry width="50" height="50" relative="1" as="geometry">
            <mxPoint x="630" y="450" as="sourcePoint" />
            <mxPoint x="630" y="240" as="targetPoint" />
          </mxGeometry>
        </mxCell>
        <mxCell id="3W4k_Y3KblpX9K18slso-25" value="forwarding server" style="text;html=1;align=center;verticalAlign=middle;resizable=0;points=[];autosize=1;strokeColor=none;" vertex="1" parent="1">
          <mxGeometry x="475" y="385" width="110" height="20" as="geometry" />
        </mxCell>
        <mxCell id="3W4k_Y3KblpX9K18slso-26" value="processing server 1" style="text;html=1;align=center;verticalAlign=middle;resizable=0;points=[];autosize=1;strokeColor=none;" vertex="1" parent="1">
          <mxGeometry x="670" y="300" width="120" height="20" as="geometry" />
        </mxCell>
        <mxCell id="3W4k_Y3KblpX9K18slso-27" value="processing server 2" style="text;html=1;align=center;verticalAlign=middle;resizable=0;points=[];autosize=1;strokeColor=none;" vertex="1" parent="1">
          <mxGeometry x="670" y="460" width="120" height="20" as="geometry" />
        </mxCell>
        <mxCell id="3W4k_Y3KblpX9K18slso-34" value="" style="shape=flexArrow;endArrow=classic;html=1;endWidth=21;endSize=5.32;strokeColor=#66FFFF;" edge="1" parent="1">
          <mxGeometry width="50" height="50" relative="1" as="geometry">
            <mxPoint x="215" y="344.5" as="sourcePoint" />
            <mxPoint x="305" y="344.5" as="targetPoint" />
          </mxGeometry>
        </mxCell>
        <mxCell id="3W4k_Y3KblpX9K18slso-35" value="preprocess" style="rounded=0;whiteSpace=wrap;html=1;strokeColor=#FF9933;" vertex="1" parent="1">
          <mxGeometry x="310" y="330" width="100" height="35" as="geometry" />
        </mxCell>
        <mxCell id="3W4k_Y3KblpX9K18slso-36" value="decision engine" style="rounded=0;whiteSpace=wrap;html=1;strokeColor=#FFB366;" vertex="1" parent="1">
          <mxGeometry x="270" y="280" width="90" height="20" as="geometry" />
        </mxCell>
        <mxCell id="3W4k_Y3KblpX9K18slso-38" value="" style="endArrow=open;endFill=1;endSize=12;html=1;exitX=1;exitY=0.5;exitDx=0;exitDy=0;strokeColor=#66FFFF;" edge="1" parent="1" source="3W4k_Y3KblpX9K18slso-36">
          <mxGeometry width="160" relative="1" as="geometry">
            <mxPoint x="330" y="400" as="sourcePoint" />
            <mxPoint x="383" y="330" as="targetPoint" />
            <Array as="points">
              <mxPoint x="383" y="290" />
            </Array>
          </mxGeometry>
        </mxCell>
        <mxCell id="3W4k_Y3KblpX9K18slso-39" value="other modules" style="html=1;strokeColor=#FF8000;" vertex="1" parent="1">
          <mxGeometry x="270" y="380" width="90" height="30" as="geometry" />
        </mxCell>
        <mxCell id="3W4k_Y3KblpX9K18slso-41" value="" style="shape=image;verticalLabelPosition=bottom;labelBackgroundColor=#ffffff;verticalAlign=top;aspect=fixed;imageAspect=0;image=data:image/png,iVBORw0KGgoAAAANSUhEUgAAANwAAACjCAYAAADhLnCVAAAgAElEQVR4AeydB3hc1Zn3J/sl+4VkN5sQUoCE3kkooQYSIEsIG5IsZRNCIAEbd1uW3G0MBtxwAdwrLriCcZXlbrn3IluaqmJbttp0dU277fc977kztkwsQ8zut9kF+/k/5xbN3HvPff/nreeMQwtsIHlqAXXOkdQfHUDD4S40F/yZ5NFnMZxPYzl/i1n0BLFDj5Eq/B2G+1kMz59JOdvTcqQTjYe7U38oh+iBPtQWvEKjayix0tFoJ8dj1UyB4DQIzYHmtdCSbyO2BeJbIbHNRnI7pHa0DW0baJtB39g2jE3QJjaDIchvG7p8/2bQNtlIbTyzLcdSmyG+EatxDWZDHjStVftoW8DYBsnNNhKboHkdRv1qtNpV6HW5mA2r7e/OXONcrVxPjss9mvKd+a3uR85tavvZz9cvX5yzZUfbCandkNwFiR2Q2G7LnshhfAtWJBczvBIjtJxU4CPi1YtpOjWfuuOzqS+bTJ3zdRoK+9NwtA+NR7JpKuhGw8GXqdv7PNGdz1C360liB57BLPwjVtGzaEefIXbwtzTv/zUNB54lsLcnoYJROJKnFtLoGU14fzZNhzuTKnwJ0/UnzKKnMAqfwDj6GNrRxzG8v0fz/Zmktx0xVyfqj3SjrqAPDYWv0+gaTer4dPRT70NgCdTnQss6ECFSJJAH3A/xI5A4CslCSBWB5rShu+x9OXYuaEdA2wf67rZh7IHzYi8Y+84PfS9oe2zIy8lA24NWt1nBbJSBYjeYB8E6BPp+e984YB+T48k90LwdvT4fo2ELVpMMGOnvPV8r1zf32/fY+l70PW0/9/n65PN0TtsFbSG1F3SROZEzFySdkCiE+FGIFdjQnaAXpf+uAOIHoXkfZv1OqN1AffFEGn2jaPCMoMH9Bo2uwdQf7U30YGfCe/9CU8GLtBT8idjh/6Dl4O9oOfhvxA4+RuLwY8QPP01V/vPU7OqNo945moajA2g81AnT9TK4X0A/+iT60d+C72nw/DuxI7+lvvB56l2daXD3pNbZl2jREBq872BULYDatZDYkybVAYjth5a9WM27MZp3YjTtIRHdRzJyUCERPoAgHtqvEAvuO72dOXZ2u4dEeBvJcH6b0KJbaRvb0KLb0aI7LhjNNRuJBTaTCG0hFcl8n3zndrUvxzJIhrcSD+bTVL2BulNriJavpqFyPU3VG4kHt5AMy+fte0lFtp+1nzl+divXkc+c7xn/d59LRaTf28b5ZENkpyWwh1jwgEI8dBBBIpzBAYz6I+h1hxWsxiMQd0LSDbEiaNoH0TyILMUKLkarmkOsfCL1vhFEigYRKsimas9L+Pf9iejBP9B89Pdo7t9jep5GU9bh72g+8BL1+7rjaC4aTNLZE8vdEaPwOfSjTyvCaUVPkSx8kkTR08RcfyZ4tAtVR3pTUziI+tKxmIEF0LgemndA4x5oOIjVUIBWV0CyroB43SFaag/QXHeAlrr9JOsPkqo7pJCsPYggET1wGvHIftpCIrKXVHgXWnhHm9AjO2kbu9DDu9HDey4Y8ZptJPzbSAV3oEd2nQUtvJMM5JxsJwPbiVVvofHURurLN9BStZVY9TaSgZ1ooTP3ItupoNzf+e5td/p653vG/93nzvfuP+mcyE4ysp9EVOTu0Gmk6g6flkmRTZHHeGSfQiy8l+bgbhpqdlBftQnqt0JTPsTFfciH5jz00HyayicS9Q2jfF8PKvZ3InCoHdGCF2g8+iyxwmeIF/47iaPP0LzvOZr2tsMRL+yhyIb3RVKHnyJx+ElMz3Ok3C9QX/As0YLnaSrOoa5sONHjE2iqeA8zuhzE79IOQMtB9NoDxMOHiIWP0Bw6SmPoCPXBAupCh6kPH6Yhso9kw26S9dvOQqJuKxnEa7fQFpLRrejhHZihnW3CCu+iTYR2YYV2Y4X2XDCMwE7M4E4s9V3yfTbkWGtkjhuBHWg120hWbSFekY9WswPdL39r3wfhvepeZN8IyHed797kM+d5vvM9+/+Sc+d79590Tg/tQKvdQbLORqp+JxloDTtpjVT9DmLRLTQGNlJbtZZo5RqiFXnKurAadkBS3JIDtonfspFUdCkt/rkEi0dTVTiIkwe6UbmvPZGCdjQ7X6Kl6HlaCv5Iw65naN7zHI7EkRfB9Tza4SdJFfw7WtGzGL72tHg6ES7sTMTdi4bjI4gF3reDBaltID5FbDda/S6S0T1KW8XCh2gJFdAcOkJj8AiNoQKawkdoihyhJbqfWHQziejaNpGqW09b0Go3Yoa3QWjHBWInhHZ9NoR3QXjnGaTvxQpupzVa36McN/xb0Wu2YgXT9xDeDRkIiYTEmXPnvUf5/IU+///8z7Xu43Ntn69vRHaSkQ0ka9d/DHLMhla/CaMxXyFVt5GW0BqaAqtVGw9vIBXZipj/Wu1OtHpxk3Zitkhswg6YWY0rqCufzImDAzmxN4tQQU9aPDk0O7tSf/DP1O14iqbdT+NIFfwe6+hTJPY/juX6PVZxOxqKXsZ/pDth3xCaa6aQiC5Gq1uL1SyRnb0Q24NWv4OE+C91u7GaDpKM7kVMv0R4H/HwfuLip0UOkooeQqvdQzK8jlR4lYIWyeXjMGrzaAtm7TqsyGYIb/0M2Abh7ReIbRDdbiMi37MVK7TlnPj4PWb+jsh2iOw4G+HtWKFtCue/N/uaH//uz9N+ph/bas/XFyI7qXAeyUhuK6wmGTmDRDiXVDRPIR5aRXPNCoVEaDV67Uao24kZ3UUqvINEeDuJ2h3ozXsgud8OnGk7MetzaSifTsA5gppDAwkf7ktDYV/iRT1p3PMH4vuexqEf/i1mwa8xJUhS/AIpbwcChzpyqqAfdZXTMGJrQIVUD2A07iEW3kJLKJ9k7XZ0Ucd124iHN6sRQJNRICTYpiBmoBHaobSTGV6PGVlzGlZ0La3R+txfb6/FDG/ADIumOzesyCbaxmasSD5W+AIRyYfaLRCV79mk7sEIbUCQuZ/MtWU/s32m3QzRLZ/p+iI0Z77vfM/6v/Ncpp8vrN2AEVmHEVmjoIfXYGMtengtWkj27TYZyCNWvYqWqlXEqnNJBddihDdhyWAf2Ykp/nt0N6na3cRrdxGv20Wsdjta/TaIbYOWDWjV8wkeGUHlngHUFbwKpa+TPPwi+uHf4zAOPQ5H/g28z2C4nqO5qAN1nv40Vkwm0bAKLbUbLXUIK35IXaQ5sIWWwGaS0Xz0unwS4bU016zEiMiNrcEMrcEMrsEMrMUKrIXAeghsgMBGrMAmCG4+g1A+ZND6+Me3QyLkQth1bcKKruf82IAV3XiBkM/a32+E16LLCwqtQbYz95Q5n9lv3co5MyLY8Ff4dPd05vqZ63ze2tb9+Tdvh9dDOB/CWxQyWtIM5mMGt2AGtmAFxfTPJ1GxgdjJ9SQqNqJV52MGxJXZjlmzCdO/WVkjRninCuLFQjtpCGyjviaf+moxOzdDYz5EVpE8MZsG59vUHxlJvHAwRlFHKHoWR/zQbzCcv8f0tqP20EuEj/RCr55q59D0PcSa99BQu4vQyXU01WxW4Wy9djvJ0EYSwv7a9dC0CSu6BgThPAitxgqshkAeBNco0hnVGzBrNitY/nwEBLZ8KliBzZihdYrQQupzwYquo22sx4oINlwgbLLLdfVQHlpwtYJsmxHR1GeuLfut70/2lYCE12HIM7SCDCJyT8hAcN57ywwmZ67T+pqfh227H6Uvz43Wff7xbTO0HoJbILhNwQpsRWD6t2D6t2LUbEGr3EzsxHoaSlbTWLqGePlG9KqtENgJge1Qkw81m7ECWzAC29BDNulSkT2korupq1hPbXkujSdXYobWQuMGCK2g3jWFk9v7kXD1IuVqj6PJ/RLJ472pPJBFQ8lYiC6D+HZo2Y1et5N4dLuCOI16eEsa+ejhzUrVGpGNCHRlYq3HCAk2YLZGcCNmcBNmcPMFwQpuwgpuwAqu/wJ/p31ASASsbci7E8G/EHz2977B1myBzejVGzBqNkJQNJ4QcAtGzSaaj+eeRtOxVWo7fnINerX87VYIbreJJ+Tzb8Pwb0Or2UqyZivx6nyaqzYRq9lMQnK1wU3EA+tJBNaRCKxFDy4n4B6G/2gOjlBRR2qLXyFa8jbNpxZiRfOhcT/U70eL7EoneYVs+RiKZEK0vw1mWDSUqOO2YRNSSHluiElqm6Zinn6Bv7s+CIpgtg17wJRB88Lw2Z53Y9p12QyhM5CBXKteR7JyzWkkKvKIncyl+cRKWspXqeNinSnC+bdD9VbMynz0ys2kKjcp0zNeuZFkTT7JwBYSgS2quCEW3EKzFD8ENtMUyCN0fBoB3wgcgaNdiRa/DuEFWJHVWJLzyiRvQ1JFsRU9KprtbyNZa1J+QbjPwQBxHrIJES+UaJnPfVbCqfiB+HHRrQoZssVPrVbEsq2oTRj+DYpkGdJJmziZB+LL1WzDErKd2kTy5AbiJ9crfy92SlyVnWjBbacJFw9tJRbaSqN/E3VVq2jyL1RxEUetux/JignQvBrqNmFIlDGwnURgG8ngVrRIPlpkk9Jqijiirc4BFQWUSGAbsJ1WUePnRluaTY5LZ3yh4f7OSft3TjjTv9GWPSFcOB+9RgIjeQjhpD0tl6HNp8+JhhPEy1dDzRZFNuPUJlInNyjCJSs2kqzcRLJqM9TvxZSUgWi4gJSgbVfliE01m4ieWkksuJRUaAGO1Mkx0LgEGtZBJB89sJWUf7sinQrxhzeREts7vEmZhWIangvnC7mffpg2yCbnMyNMW+0XhPuCcBeu5TaiCJc2JzNaTIgmJmVG5jLmphnYSKpqrSKjaDghnHZqPfrJDWinNpA6tQGtahNGjUQxt2KGtkH9HqzIDlJSKxvccrrGVmpw607l0lC1DD26HAeRORBfB6F1Kjyq+7ejBXYg5TASJNHCG9DknOQizuODfdK5zMO01WYe+tyt+G9f+HAXLnD/H8j6d67hCNmWkpBNSCaEypCNyBZlSgrRRD5FBkUDim+nNODJPBIn8kiWr1XEM6okRZBvB1OkmCK6A2p3qnyzHtqCFtqCLgXuka3EA5torl5HpHyZSr47aFoBdeswazaoyIsZ3IUR2okR2oYhqje8TiUFVUJXJQAlCfg3IrQJeeDzwVJ2vtj658bftbB9EcQ5b8Dkv9+HkyilEGkjes06BcMvEW8hmC2XWvVaTHmP6X35u2SlmJy5xMpzaTm+SpFOr1ivcnIqzRDaCmlIbs8MbcEIb8GMbFVQCkuKREKbCR9bQUt1Hg6a12NU5mJKks8vtYJ7sMJSJLwFI7RR5ZBUnie8ASu0sU2YwQ2cDxnn90Jagv8fRugvSPPZor9/1xpuA0ilTlCUilhykgjfdPqYVr0GgToeEhIKMdeSqMilpXwFzSdW0HJ8pQqe6FXrsfxSwCEaLh+VIw5sQvdL6mszVlgms27BVFF9ieznY0S2EjmWS+OpNTi0k0vs2sCabZg1OzD82zGCWzEkPJ8ux7KkJCskI8KFhXTlc1+Q5n/4oPEJhPpECyQtyCLM54II+/nwid//CQNmRnZbX0PJpdyPkE9iFIH1inhCtPipVYpwqao8pRFjkiY4LsRbQeJkLmaNJNNt7ZjRlJaYraoqSrjTGvkkqjejBbbiEO0mpSuWIpxUt2+xk9OhDVjhdVhhqR5ZixUU5/LCCPcF2f6Hk+0ThPnTkOGTZEc00GmkCXAWMdu4B0tMQ3+mfLDtfj7X9VuTTzSckCtZKVHL3FZkW6u0YuLkKmJK0y0nXr4SvWqNfV2x7AJnlJGy8loXfch2cBOpmk1KkTmQrHtAtJuUukhtmUQjpVJkLVbIJpsEVAgKhNUXAFVPKZ3yWdB2Z36aF/7F3/z39t+5BL71MSFXZj9DBDH/MjidVE8TL0M0s0biD+s+0Rw2A2JKitI4U61k+CVwkkeqajWxkyuIn1pJokKS3bnquF6zBvkb+ZxWtZrkKSHdcoXESSFdHqZfaobt785c46/b9XZQJrgZBzI9RHIMATs0LzWLUoBshaQmUmoh16bJ9gXhPs+kzQh4W+0n9U2GRG214jO1RoZomfZchMuQzaiWIvnzDygZ4gjhpARNWiGUkE1IJoSTVvbl+NmkWYvpX4NWlUv85HJaTixVSJxagV69Wp2TQn0p2M9A9lsD/xp1XQeRXRhSVCz1jkqrrcYKrYJQLgQlwy6jR1ozXYh2k89kPv+Z2vN36Cd1+BfnP1v/tUW0zPFP6t+2iJY5niGW7IumU+ZkOrChTM1WhMpc8z+TcKLpMkRTNaFh8TVtYqqZL0HRtnkkKlbQcuIjmo8vIX5yGVrVKky/KCc7tXZWq6xCUVRrwb9KFfIrwkmBpqUq1/OwwiuwwstBSCeE868DZSOLKZkxLf/GVpFWiHuhENJ+NoH54vP/vf2XMRfbajORQtFyQr6PEy9DrtZthnjSftL7tTVWJhYhpqUQSKKTq0lV5ap9ZFZBWCKaEkgR0gv55V7WQnidmnam1eQSO7lMkS5DOCsg2utjhDuLK3lQsxSCqyTxvRO9RgIka7Eiq9RsASv8kZpagEyxkYdRfp4QTszLC4SaGyeq/0LwyTb6J3X4F+f/ZxAuQ7yPtxKkENNRkCHdpyGaeu8q2LcOS1lwEpuwYQbEdLQhx4RUCpH1IEjvZ85JawQksLJSabfEqeXo1WIJtuLEOeU7F6oXQ3CZ+HAyPUEutkZNnCOyDMJL04TLtTWchEDli0TjKayx57nJXLe/gowiaaQf7PQNyUhwQRCStjJtP5Np+p9l4v6t3/MZBf7j5vxZffApvlt9/uOWSeYZWn8+U9WTadN1rBICPys1IPutoCqBMp85R5v5rEoLtC6CSFfvR2RyqExItis9JDEtyWdJSOvVa9Eq8xT06jyMmjx7crNokcyUIJWrzVxXnidjkYncSkzChhnMI4PTQUGZ2HzW8Tw7hqEi9MILIast61YgT5FMyJaqWIFZI+ak9GMr2RYTU80HlTmhuRBYCVUfQFBKu6Ib0StWpIm0Wqk9UX0E5Q/Tk0hlIqnYoP6V6Va25bwNS9qQ3OQapSllwqURWa9gRqWSWhzVtSA3fUGQz/5Phgi6vJTWgv03bMtn1QiciRpn+iJjxtiBAJV+yeQ8MwKuWqm0WIMVyVNQk4RFmFSfyne0Jt5GkMSuf7MNmXgp26rsKZ2zkiUnwvbMfanClzrFxCkRPHsGv14twi5EyseoEdNsM6YENsQ9kT7wb8CoXo9WtYFU1UY0mUdWtREa9+J3LiZavBSSh9U6IslTeehVa5HyKyJC1LWYwVzM0CqM0CpMkTtxhxSRM1NvxP+S51oN4ZVpyN+JfH4M6T4xw6uxkWvPmomstteiVOtRCsEz8p7mhARB/OlnUs8l79gmN8HVtksWWmkrrpDwy/68Q72IqhX27Gwh1mnIF2cYKppOyJYhnOyLuWn/jZrdLSap2LmqFEzKwdYrSB2mrjopDyu4+vMJNWBlXpC8pL8Va1S/KUELrsZMQ/VnQIRhTRppc721IPjXKW1gBFdjhHLPQH3Hmc+eER5xITaksRFkLlj1egyJ3PnzlAlm52QlUW2H7cXvolEWSMqnpXwlqao1aDXriVfkYQQ2ItpKCGtUrEE7JZpC5lzug4b9ahJnbVkemkzsrNtHqkaItVNV30c8H9mTREMyW1s0nxBrjSKaHl6BQijXXvIiuN6+VmCjnUAPiryJwH+EFfoIM7gK1QfSD2fB7hM9IASWbZvIrVv5LIEMRPZFAWXItv5jMQ4ZyDKEWwHhZWlr0daADqWlhDh/ZRqK+SjH01AqM2PaZYIf6ZFRjcAykkn+zp7xrQfXo0n+QmGtvdaJLEnwOYRtjrSy81vb/J9yW9I0Zrit/rPXklEWRtr0sd+nfU3l+J9ztrUdPJDzqHU/RFOmtWZGHtQALAOrCK9oi1Vp5EJYItq2ZROvXA5RWS5CfgPhoJr1H/QuAllcp3EXWuU6rGqp6JCV02R9Tykf3A21B6ChgHjNTiqKloHmoeHEBurL1qrFhYnsxgpuwwhsVqWGskSFLDJlRHPTyFO1vvaKAzK9TCByKJpsFZYIvBJ62wpTqa5MyuusNmM1SCuDQsZ9yrTiqwmkL4Q8GRenlaWizHbxD6VPclW0X4KQqt+UmbkGh1kjKYAzwnDG/7JzcZZiq2g+e5Syq/YztnKr9qwqlDPJRRmVDPHpWpk0GdPm89SeNuMyfsHf1NqmoJogLJOEzwkxhXJBEM5ATCqBjLpSC2uXHtk1sWJmZgIDaR9erUcj8rASK7gcM7AMM7AU079EaQpCUga4RC35rXz9yIq0329rT1njJVq6GGo3gyzyK0KZOkBD+Sp7MZ7IHojuQ/PvpP7EJgK+tQSK1xM+ls+GJaNZu3gkc8f1JFi8DuoOU39sIyQ9WOE9JKo3kfSvRwutRY/koUdz0WtX2csthlfb7svpFd3EjRET2g4C2nEJeS7RPBmk88yKdGlXJzPIqFaUS8Yv+5irpciYUT7Ciw2q6sRS5Wli8oqfKJaImLzSl+KCiYWTh0NFWVRhsiS8bdgL3diL4ejhPLU6lUxZICAL/4g93xq2U61CtNLBmXCo+AUyWqqXKtGdFRjB5Z9LyJoWenDZZ4YRXIaNpRhBwUdnEFqCkUFwCYZA7X+oPmP6JUFrJ3AliavMQ38uZmAlZmC5TbCgmF5LMIMfYAQWYgQXoAfmYwTmQUB+qEUwDyswH4ILIfQhVmgppozi9evUL9Ik/LnEavJoqsqjRSpAGncRLlsFDYcxQgeIVe0mWLKJQ/lzmDiiK7995Dou/6aDxx64kva//yk3Xe7g4i87uPfGr7Jy7uucOLxMacCWyk3EqmWNkDxSYVnXdAVaZBlaaBmp4DK04Cr04Gr0gCAXIyjy9hFGaDFmaDEEPgL/slZYDn7BCttVql4J1auwqlZiVUkryFUwq1amYxuZNpOjTpNOTN3TtaASgFmLEcxLQ4gnaYEM4STiI2s+KlPQ9rsyU3K0yBpSkTy0sBBGJvFJgadA7GRhtc1sZc9mTA8JpkiARTmZ0spNLoegpBo+/NzCCn+AGV58QbDCi0GEJvRBGrK96AzCC9USGbJMxtmYD+F5IOel/wPL01gGAckLfQRBeSeLQa4RXmT/bWQBROal8T5E3ofgHAgI5trEU4T7ACLLlSZpqliCHl1HzL+G2pOrSMnCubFD6DITuvEwvgNLmTdpIM89cQc/vur/8tPbvkf/rD+wY8N8GkNuMPx4C9Zxz63f5s7r/5kfftPB9y5yMKLfnyDmQQttRw/JglVrsGpXQe0yqP0Ioh9CdIny06zgsrSsid8kWlmeR/pABohFEBDiCT6AwIf2Lz0pIi6F6o+gZhnULIeaFSCWX006VqH8N+k76TdpJeaRkXHbD5ZBTKpZbKxBD5yB5PsU4WpW41COr5h9oQ1q5S0JdmiySrKQLZpHMrraJp2sPhRYh67aMyOkpaKXcgPpGxLzo+YDqFkE1Qugch5UzYXq2VD93ucTNe9h+mdg+qdfECz/DKiZAdUzoUYg+9NbYRr4p2H5p2L5p7TCZCz/JPBPhuppUC3f0RpnvsOonILArJqCWTNVwVLfOQ0CMzCrZ2JUvYdRNQu9ai5a9QJ0/4fogeVowVyaZd2O6rVYjXtIRHZhNB5m96apPPu7W/nlgz/g2ku/xPNPPsgHs8dQVXYAtCBQB9SnUcf8WWMZMqAjLz/3GE//6ifccd03uOWHX2HC0JdJ+Tej+XPR/R9h+Bdi+OdgBd6DwEzwi1zNguo5UPU+VIu8zUr31TSomQrV0888e9VMqHoPqmZB1RyonJuW0wVQvSgtv2mNKHItRPZ/mMYS8Mu5pac1pHDAtiDyVDJdSGfzxG5lHwksCeFEu6WEmUI4Rbb1aJG1imRCtmStLAGdSyqwEi2wQnWwLra9/yMs/xIs/wfgl9FW8gwLwS8PPAsqZ8DJyVA+EevEeFIlo9BK3/pcIlU6kkTZcBLHhl0QkmXD0UpHoJWMsFvZLh1OKoOyYSQVhpI89iaJY2+cheSxIWhlr6GXvaparUz2XydV9gapsjfVZ+tdr1HnGkK9+w3qPcNo8I6kwTeKxuLRNJW8Q1PJJBpLplJfPI264pnUlcyhvmwh9ceXUH9iBcGylRzcMoW5k7N55N7vcOm3HFzyzw5+cuvF7MpfjNZcAakwWA1AE+j1mKlaTK0ezCZqI+UM6teF6ZNGMHpob2ZPHk73dv/OzVd8jR9f8SXqSpfRWDKXhuKp6mfSGn1v0ewbSqz4TRIlQ5E+1kpGo5WMJVUyRslbqnQEqbJhpMqG2m2mv+R46UhSpaNIlYwmVTIWvWwcRtkEzGOT4MRUKBf5nQWnZkPFHKiZDzULoGahrUxqFqeJuQSrZimWfwVmmnii0WzCiYKyI7mnCScBjZTY9GFZDnqDrd3CYifLuuurSEZXoUVXoIu9HhYT4gPb9AjOx/LPwaiagVExBfPURMyT4zCOy82/RbJ4KEnfGyQ9Q0i6BxM72odEGsnCvghSRf0+F0g6+5J09yHh7n1BkM/qngGqr1QfFvYm5eyjEDuaQ9ORnpglg2guzFY/EFh7uCstrhySvj4KcW9P9JJuaL6O6CVdSPm6EHN3wTrel1RxH6p2tae+sA9m+UjiJcOIlbyFdmI8oYKhVOwZTFPxJMKuKUR9c6g5OoOQ+30SlXlUHp3P3jVjyX7ppzx2/3f5zkUObvjBP3DzVRfxjf/r4Ftfd7Bvx2qsVFSRS09EwWoB4kCCVKoRv78c02xh5YpFzJz+DpPGj2DSu28y9d03WDBzLFd99x+55tsOFr39AhW7R6CfmEbM9xbB/TnUHsqCk2/QdLgHqaI+aEqeBpIqGkjS2R/p94SrN3FXL9UfLartTYurDy3OvrQ4+9HiHEBL0UBail4h5nyNuGsICfcbpDzD0bwjMIpHoRePgVNToEKsg/fAL2a1+LULwL8QS4Pe+TUAACAASURBVKw5FQldoXxio2YVUgKWqlmNpszMdWc0nBBO8+fZKwKr9dXFZ1uNFl6FFl5JKrICI/oRiF0fng0hUePT1c8J6xXjSJ0YQ+r4WyRL3yRZMoSkbzAJzwASshqYuw9Jd280Vy+MoizMoh5YzqzTwNWTzweyMF3dMdzdLgjyWek3s7AHxpHuWEVZ4M4Gby/w5GC5e5I82g3D0xPK+sLxflDSm5Q7i4SrOylPF1oKn6Wx4EkSrucwStqT9LxMytcV61hfrOODaXT2I7C/Ny2+kVTvf5XwkVEQ/pB46QzChVMIueejBzZTtGUCU4f9iUfv/Do/utzBdd9xcMP3HXzv6w5+cLGD6y7/GrfdcCk/vetmXunbg8aon4ZaP0H/SSBJMtmAprcQDFWhGQksdE5VHGPGzEm8884IRo4YzMRxw5k6fhjTxw/jusv/mWu/7eCJ2x3EPBMxjo0nerAfLYW9oEQG8U7gzQJXD3BmgTMHnL2wXNmqX0x3DwxPdzRvd1LeHmlkkfL2JOXNJuXpRcrTm1hRDvGi3iRkcHT1J+UeiOYZhO4djOYdQtI7jGTxKLRjb2OUj4dKMVNngH+2TT7xg8UfDizFCgjxVmH4VysTU4JVpzVcpj7MjqpkkqP2bx0b4WUY4aVY4kxH3oOQ+APjMCvHoJWPIFH2BvGSwcR9A2l2yciRQ4szi5izB0lnd1KubgqGuys4O4Oz0xm4OsPnCh3AdaHoCJ7u4O4OTunLbuDqZrfOrpiFXYgdbE/ySCd0Zzc0Z1fiRzuTKOyCJmQt7gYnOmKWvABl7eBkN1K+zkQPtaOuoBup0iFU7cnhxPbeSniiReMp3z2KpuJ5ODcM50DuMEb2/i3f/UcHd1zloOMf7qNvp19zw6UOrvy2gx9d/S/cfv13ef6ZX/Hvjz/EX/74NCPffI0ynwcsi2gkBOjEE40EQlVEaoOYGMS1mGonTB7PK68O4J13RzFp0lgWvD+NMSMGkd3lBW666tvcd/M3uNThQC+dTEvRUOoO9lI/IkpZNvGDz0NpV7tvnR3B2cXuI5cc6wLuzlieTli+TpgKnTF9XdLoiunrhunrTrKoC8mirqREbp090FxZaM6eCilXH5qP9qW5cBAtrldJ+N5ELxuJVf42yBKTVVNt4vlF64lrtTQdWMlFSsFUWaREKcWHkxyN5AzshKAkByVfIck6ifSkI4tBCQdPhOpRmKeGkTr2miJZzNOXuKc3cXc2CXdPNZomXV1JOruguzpjuDtjejqDtzMUtYPCNIraw+cK7cDV/sLhfBlcMlhJP3aCwjSOdsI62gnjSCdwixbtQfJoFxJHuqDJaF/SV0H3ZJFwd6Cl6EXqC16ksbCT+u2yhqI+1DsHkzz2DvWet6Epl+ayeez8qD+bF/an34t3c9lXHPz0hq8wYsAL7N20AKwgJ1xbuexfHNx+/SX89tF7FNFe6dONaRPG8Mbg/kwa9w57d+2iobYOUzdJJESTmQSjAUUwIVtMixNtrGXPwb2MHf82U2dOYcGiuYwb9xaj3xrCc//xOHfc/EO++40vcfvV/8it33RQd2QUof0DiTsHkijqTrzgRfDJz2S/CEV/hqIXobA9FL4MRS+D82UsZ3tMVztMT/tWeBnTk0EHTHdHdGcHdKe0Mmi1QlFntKJuJEUDOvsQc/Yl7upPwjOIVPEQ9LJhaMdGQeUkqBKNJxFdIZ1ETFfa0XpJelefJpyUwKSz6IpsUlGQDuOrgIg4ie/Bybewjr+GXjKIpBDN3YuEO4ekO5uUuyeGt6dS3aLNDHcXDFcnLLdARmcZedp/viG/n36hcHbALGiHVfAyFHa0CVckI3l3cIl5mUPyaA90Vy90d28lHEnx8dz9iRX1ofZgFnVHcoj7BlNXNJDaolcxKyain5pGTcEYSnaOoHDzcHr95cfcdrmDe677Eo/f+31mjM6GxjJoLgerFq25irpgCZvWLKJ/Tnvmzx7P++9NYMI7w5k5bTzTp45n9KjhLF60gIC/hlAwSDQaxbJM6hprMTBojDeiY+KPBkmhs2jpB7z19ihGvzOK/gN78+ijD/KzB+/glusv5cpLv861l/8zd13/NW6+2EH1/uHUFQ6l/kg/KB9E/YE/QVkn9VPZOIVwf7EHdhnMhWyulzFc7TFc7TCcL2GeRjtM59n4uPVhKbIKYTtgimXmExnPQVPyLnLfS/EgVTxIuVLmiVEqhkGlREXngl/SD6LpJNe3CqolFycaLrRKRVgUG4MS3pdcg+QkFkPlfKxTs7HKJ6H7XkP39kVzicOeo1R6ytUTw52N5emJ5cnCcnfHdHXFdHbGLOqIWdRBQW4an2i6jmfD0wE+F+gILkGnC0RncHcDTw/w2P6KUdQdrbA7qaNZpIpyaCnoie4dhFn8Ki1F/ag73Jtm5yD00qEYx8cQLhiGWTGHxIn38B95l+N7x7ByRns6PHkFd1/j4JKvOJgwrAMH8heg1ZcpgjUEj0E6imikJITfQnNjDb1zOrL0wzmMHvkaE8ePZsTwIcycOYkxY0cwbvzbbNy0nlQqgaalaGlpJqklMNDV/2MVJ4gbSUW6xcs+JKd/b+5/6AHu+end/Oi2m7j88ou5+qpLuO7Ki7n52ku465bLuf/Wb/EdhwP/kXdIHJvAqV09IPIWcVdHks4/Y7r/DJ4Xwf0SuEXjySDfCdPTCcPbCVPk7pzmfKtB0N0BzgU1SIqcdsH0dMX0iK/cHbEadCFgcV+0koFoJRL5HYF+/B3Mk1Ohco6dYqj+0M7tVcvqzUK44AoV1lR5hRoh2odQtRBOvY9xfCZa6RQ03xhSzoEYzl7oRTlohdnozmwMV7YaXcVxRxx25biKb9EVqyht/ogZJL6arysUd1GwfJ0RmKozpEP+l8Mj5nUXzAuF+CNCNG82+HqpQS5ZmEVLQQ+a5adtj/bBLHkd6/hw9LLhtHheJ+aVUPhomtxDqdo7hKqDkzi4egRvdP05P7/RwS3fcXDF1x1cdpGD26+5iL2bF5NsPElzXQV6QsiVAgyQsIap0dAYUUGP7Ts2MnnKO0yfMUEFOiZMHMuSjxYwe+4Mxk0Yy6IP5lFZfRLdTKqASCLVQkuiiYQeI9IQUUQTDecq8XDdLTdw/a038oNrfsj3f/Bdrrr2cu6662buvONabr7uu9x49be49rKvKT/x1/d/jeqiSdSXTKCmYCDJ46+QLM2iuejPGL52WN524GmP5emo3BjD2xXd21UFhqTF3cX26cSvOx07aDUAilLIQAbHj5PP1QFLSCv+oEdcpS7oXgnGZJHw5JDw9CfhfY1EsaQc3lHRVKtiLlRJXm8ZnCGcZNaX2BPkhGhV86BiFpyYglHyLinPWySdQ9CK+mAU9UxD/IWeKgqEuycK3p72COzuYTv0HhmRu4G3O/h6qBs0vF0Q6J7OCpq7E4KUq6NqM/v/Fa3u6sgZdEJ3dUJPXz9zvZS7M3+NLvYxTwdSEtlTbUdSbkEndU5zS3Di3BBfVp3zdEOTaJmCbNvQPV3R3WegzHExyRVsP1iim+FdL1G7rwuNh3vSfKQXzUf7ERP/yzsUvXQ01XsGULXnFSr2vkagYCSNxZOpPDCSFZOfpv9frufGix3cccU/cN23HVz9LQd3XvNP3HrF17nzxu/xp6d/qbQXZgwsDcPUaGppJlpfT2NMtJOiHYVFBxg3fhQffPg+7457i4mTxjJ12jiGj3iN2e9PY+KUt1m9dhkWSRqaw6qN1vtJGi1KwzXEG9EwaNHidO3ZlTvuuYNLvn8xd91zOzfeeCVXXfFtbr/1Sq6/8pvccvW3ePCOK7jrhku4+VIHy6e3p+LQCKoPvYZZOZYT2/9CzNfDTnd4O6C7X0Z3d1DvVfo75e5K0t2NhKcbSXdXLBm0VEBFTHGBBPFaQX4wUQVdMtaIkC4DIaZYGZkgjP1eUq5OxIs60lLYmYSKY/Ql4RlMyjcMo+xtKJ8MlZKQXwjVdvWKQ5mQUhlSNd/O1IsNeuIdLInEiFZz9QdPX0xxyj3dz4FutppVvlvXc47itvCcEarWApbZNpSqFnX9nw/LkxnhRNumRzrVeXK8K5a7G5a3B6ZClvJHdcldebOV2aD7epBwtyPpfRGt+GU7n+XtjOHthubqhlbUHdOdg+Vqjex0yiNL9Z1R0guttBepEsmPZZHwdifh6UpSRmGvCEgnOJFNvPAlWgpeAH9/8HWCGslXdiLhGoBZ9hYJ73DCBwbZidrjUzi5cwjRognEjs1TVe5luyfyZvef8eu7L+Kyf3Rw+w8c3Hf9V7jhe1/i/lsv5/7bruCmK7/F7371IJ1ffo7XXunD8eM+klqMUG0QA4uUpRPXkjTFhSjQEm/G0JpZsmgW8+dMYfzbwxgxdBCTJ45m5YqFjBs3ghkzxjFl2tvU1ldjEqMlESVlNmIRJ6bVk7ASaJjoGBR6jnLDLddyx503c8P1l/OT267l5qu/w/0/vpJH772eWy77Kvde901uu/QrfP8fHHT57Q1Ej4wk6XuNlO8VmgtzaJE0U0lvrNJeJIq6YHqzML09FQxvNjZy1PuTbXm/KtIr0d5zwHR14a+QsUhc3TCd2ZjOHAxxo1w9VHpHd59RHoavG7qkHVxZJJ290NwDQH6V6vhbUD4JyqXq6iMxKUXdLbLLryqmwfG3ofhNTFd/jKK00MjDeIRYYsOeG2ePzJkRunUrwZS281DnJvO5CP63HxNCocLEEipOh9RVa4faLXcPrFYvS2xzZZ/7eqF5e6P5epL0dEDztUf3dcAo7ozh62rb8u4e6M4sjPQLsZw5WEU5WM5sLGdPlRuS6KFRnE2zswv1RzrQVNQJvaQnHO+NXiJplM5E9r1g73vlxUlUrBPNh9vRdPhFGg53RT82hmTZJFqKJ1K9fwSx0vcIHZ2MZ8tI8mZ354VfXcrDP/qyMhFf6foEe9fPgpZj/P7xO7jp8q/y6P238MQj99Llpd8z+d0RvDd9AhMnvE3+lo3EkzFFrqSpIxAt1BxvwcSkorpChfRdhfsYPWwQ82dN5MP505k3exIL5k5h+JsDyOr+Ej26t2PZsvlYpxPbceLJOjSjSWk6jSS1TVFMNJ76jye49darufaqS7jluu9w69Xf5J4bL+GG7zq4//p/4sEbvs5DN1zE3Zc5eP6hK4kWzKLh8CB0Tw6Gtxexo92IF3bH9PVSSBT1UMfl3LlgerMVIYV0beF8smm45P32wXD2xXD2Vq6U4Za8ahcM8RMlDlEsbpIt77qrm+1uefpB8StQMhKOz4KKRThUEWf1PKicCcfHo3uHoYmzXdRHsVpFwTxiEp6baJnjf8+EEzIrUrklsHMGSmu7szA8otWy0X3ZaKeRg+bLISWk8wkBuyN+gcrbeLthervbGlH1TQ8VxULMagXxtzLoATK6FmfBid5wqj+U5ZAs7EzDASFUJxLOLHRfX8ySgdQf7qEKB+KeQRCdqCKLRvlYat3jCTqnEvXOwpk/nDe63cNv7v0Kv7r7H/n5j/8Pcyf04NjRFUAl4CcWLSZv6XT+7Re3M/rN3mxaOZ+5k0czZ/IYNuZ+wPixwxk7aijHynzU10cV6YRgjc2ilSwV9LAsg6YmqXXUyFv1AUsWzmDsyMEMHpDFwL7daPfn/+Ant9/IL3/xU554/BFKfEXK9/NXnyQcrFZEtYwU1VWS9BafMM6W/NVce/UlPHDPDfzy57dyzy3f4cHbLuG+Gy7igRu+zD1XOvi+w8Fv7vgyy8a3w7VuBHHvdBoL+qK5eyrEjnYlXthNRQ0lcth6W/Y/js9OuB420YR0UsShgoWiPDpjeDqeJpzEKMS3E3mzNWEvTFdfNOcQODYNTs7FoerDxM4sn4RROpqUawipov7qAhJuFmddRR4/QcNliHfu1jY7/yu12Pm+2/BItYGkLbLPgu7JRvf0RPP0bEW2nqSKM8gmVWyT0FSBoVYRWTVadsfyijkqRBR0wfIKuqaPy7m0L+vqjFXQHu1QO6zCLnaO7NgrUDyIWGE/zNJhpIqHkygZRejw65TvGkSkaDTuzX3xF45ny5K+PH7vV7n6mw7+8NhltH/mFrasHEPw+GbgFFAFBMAIEKx2AY0snD+FyZNG8v6s8bw3cSRTx77B3CljWfjeJMaPGca2TWsVKUxDyCD5sjjNzU3KYzNSSRrralXgZOvmdfTq2ZGhQ/ryy0fu5Rc/v4u777iRW66/gh/ffA333HEL702dQHNdGC3WBJYOpgG6TqpJ6iaTmPEozbXlPPlv93H/HT/gobt+wB3XfpVvf9nB5Rc5uOkSB0/dfxEz3/gNuz7IJnjoXYguxzwxi4bCYaqyRHNnIUgUdVPImI5SZJHZPldrm5ptazflTpzTXUpbU+JOuXtjuvoo18F2r0SmxZS1o6CSWLeDgvLOu6vIvbgZohFTRYOwSiZgHp+OQ5w688Qk9NIxaL6hpNyDMTwDwNcXinurQIjhFNZmSHOh7d9uCp5NItGyFwbRYJonJ13GI6U8ghy7tEfKe7w9ldmoFfdEK84idRo9SBX3QPdJYKgPuPqCq3c6Mptlk0pVLUjwpB1JhfYk3S+TcHck4RbfqzOaSliLoy7kywFff/AOxHQOIn50MPWHXiPueYfQ4dEkT8yjfN843NvfZvaY53js7q9wxTcc3PJDB9//ZwfvTxmI1uDBih1TBGuMesEIUl8r+40q+BGLRdi+cyOTp41jxuypfPTRfGZOGs2i9yawavFsZk4Yw/IP5hGqqSAZa6auViKQFslEAvnX0tiIFo+jJ+IcK/by4vPP8tCDd3HjdZdz/TWX8tCDP+HGay7njluv5/6f/IhfPfIATeEaMFO0RIJgaOgNdWj1dZBKgRFHqz3G7nWzuf3qr3DZ1x1q4Pjh1xy83u1BCtYNpfrwRI5tf4OUaILoAhK+UVTuyKZ6ZxZW2RskXTI4Zilo7h4ITF+2ghxXeWDJBZ8Dtn/3GQgncufOSaNnWg67Ynol0t4R09tBwSadROPFopHSuxwsj0SVB2F4pbD6XRzGiYmqyjrlHapqxgzvK1g+cfj6gi9HsVUibTbh2iZNW7bxpz1+NrnOdZ0LI5uQ1CacEEtIloFNtJRX6up6KKJpxdJ2Ryvu1gpdMVStXl9wDgCnEE/qF8WvFa3WGbO4I0axFAZ3RCvpTKqkG8niLJLFOSSKbT8QZ28o7I15pC+pw/2JH36FZNFwNN8EjGOzafTOIXd6Z3Kev53rpCbxOw4u+4aD6y51cNv13+C2Gy7mmd88QFP0GIkmMRsbwazH0GrRdanAjyMRQYMk3lI3s+bNYumqZYx8exSjxoxg/uypzJ8xkZkT32bc6OEcPbgPLIMWpdEg1hLDMizhnaoQEe2EadInqwf33vlj7r3rR4pwD//sLm675WoeuPtH3H/nTVx7+cVsXr0EUvWgN0Jz2G7jUdCbKDu4nTd7/oVf3/s9bv2ug0d//H94d+Cv8W1/lzrvXKLOqYQKxhIrHk+LZxQtrjeoO9SHhsM5cPw1KH+NpsMS1Ray9TgNeSemr+dpyH5b+DSEO7+cZmF5xLqR4IsMtGLZdFWpLcvXEYEhlSveDuoYvm62CyGk8/XC8g1E9wwl6R2BQysdQ1xVR7+G4R2sTlrePhhSPSKJbI9tFv1PJ5z9wnoqE1Jte3uoqJL4ZhKkkCiTCoQojSX1doJOmMWdVAcr7VY0AMS3LcrGcHa3w/nezugSRCnrhlbWg1RZNsmyviRKBxEvfY1Y6RskioeRcL5J/OhQUq7RcGwqCc9kDi/rxVvd7uGp+y5Sid1bv+/gruu+zj23fJe7b/0BN1/9Xf71wbt44Q9P8kq/bHZv26hyYfHmWhItdTQ1hJV/JT6WFAE3xxpVoGP56pVMmDaZcVMmMuW96Xy49ENmTp/M3JlTeWf0SD5YOJ+mRiEp1PiDpHSThsZmKXtE0wwMzVDEcxYc4dGf/5y7bruVW2+4ikd+dhe/+NlP+P7FX+WXP7uDh++9ieefegTMKGgBEkE3yaCT7Sun0vHp+7jxEgcP3/pN+r34IGtndePgqn40+mQu2kIq9w6jyf0O4UOvY5SNpe5Qf+ISOxDrqnQg+HqjFXZREWR8WejuVqkU8aclJZBuzeIstS/HzgU7+nx+DXd+wslne6bJJtvdVIBENFqGcBktZ2s8UVDiVsjfysDcB831KnHXazgkZxArkgd9Bcs7CHz9lOpMFXYlVST5BlGRbaUEzmiiT77h8z/wp9Jwypa2w+yZgMenapUpeuZez5jHEmkUDWYXs0qUyU7K28Wumc5EOtjVB8s5AKOwj0r8S4Fr0t2dlKQMfFm0eLNo8ubQ6OlHvWcwde6h1LrfIuoeS9Q1jlrXFMp3jSF36ot0efIybv+eg3uvcjCgw8OsWzSK539zN888djfXXvoNfvPoz8nq0pExI0YydcIUpk6YyvzZ7yufqC4SUQXBteEwyXicZCKGrqdobm5UCWqnu4jJ0yYz+/3ZvDtpHO8vmsfc+XOZNGkC896fw5tvvM7SpUuJJyVID0nDQrPEgwPdBH9AJoZCKh4ju3tXnnjsX7npmh9y923Xc+/t13LHTZfz0zuu5hf3Xc8TD93ExmWTKDu8ktGD/shDP/oqMmg8eKODOaOfx7djApWH36POO5t619uY5eOJF4+i2T0UKseT9LwOwfE0HMomWdRbaTPLk4MuPq4Uakv43ieRZIn+dSWZzq/Zg6TkNG0SnotkrY/95xBONJvIcEa7iaycIZzIipBOIpa61GZKntcl990N3ZWN5hxAvKg/joT7VRISJHEPwHT3xXL3wnT3RE1rUGF8O5wvtWSfDVnISNUWPomwNrHkvtqGqHxR4cr3FP9T1LknWz2LLjWI7s52iY6zI0aRVA7I1I4uCqnC9gik/lNVxYimc3VAL2qPVigFrL3g2BsY3gFQPkTVklL5BjFfX+qdvWgufhXt1BiiruE0H5OZ1h+oiKJn6xjGv/o7fvfw97n2Uge/fviHjH7jJaqObSPVWAqEmTdzDM89/Ss6vvhHJrw9hhmTpzJn5lxmTp3N+rx8Zk2bR7GrRLGiIVKntI+YfqKSjpeWgmViaOJ/6eStXs6Uye+yePFcxowZyodL5vHiS3/iZw/9jMefeIJ77vspVf6Ayq+F6xtJWFAXi6NLfNNfoyKUlqmxb882fvmLB3j80Qe4+7ZrufOmS3norqv5xb1Xc98tF/OjK/6BW3/g4M6rHNx1jYOcP9/C0ql/oeLweBpKp1NdMJJT+4cQLhpJrHQ0ieLBJLwyBy2bxqM9aDrSnXhRFoYE5mSakVcCdNl2xZJb6kMFPWxISZsUT8jAfwGwfFkI2pK9T3P8jHzaQbKPD86SFrAh1VRdUWalDBZybXm2YvHjBuDQPIPRnJLcFvQBj8yxStdGeu25RFI79tnIJmT9LA8s9yNI29HnaIWIinDycEI6gXJaZV5UDyjvozrCKnoZUyrKVflOZyxJeErlgYTuxT53S41iF3uqS5FUymRDST8Szn40HOlLXUEf6gv70eh+hcChPtS5h2DVTKbp2DhqiydRUTCeFTM70q/dT/jBRQ6u+icHnZ/7GQvnjaXsxCFATLlGNKOOeDJKJFLJxIlj+WjJYubMms3K5auYPHEa8+cuZuyo8cyYMpclC1eoqHq8PqZIp8WSWCnxscTnMtHjzVipGK4jBxg1/FXGvjWEbp1e4He/fohfPHQXD/38bh565OfceffdLF6yhOZ4nPLKSpoSNtECtWHqmuskGaAmhoYCx+na8Vl+8uMfcuetl/LQvVfz2P1XcPtV/8D3v+rgin928OTPv8OkN5/hwNo3OVUwgZMH3yLkHE2DbzTNpSPQT70F/jHo5W9QJ/P4SmWSbFcMn5RE2RVH4gcpDSayoRLTGaJ9bJ6kVDOJaXYBZJPP/GcQzpZfm/j2PYufJtbfmZLF0/viwymypf9eZMjbD3HVHKbnFUxXP3UAbx/w9rYjaZKd9/VUEKdTts9LOnEQz4ueUHwenJeQn45wZ5EuTTZ1zN2D2IE/kzr8F1ujnZDJiz1JFrxMy36ZR9aFuj3t0JzZUDoI0ztAzRbWPQOh5DUMqRioeIda5xtQP5emkjFUHXqdxrJJ0LSKA2v6MzT7Xp5++Bt8+/84VAL3P355I1rEDfFKtaxAfUuUJCaReKNCQypOzNQocBUxZcZ0lq5YweQp0xj11lhmzZzDvLkLmD1jDvNmLxDFpYhWc7JKtfWhCE2RKMlGCZxoNNcGSDaGGTq4N//64B08/sjd3Hf7NTx41/XccOU3eeyRu3noZ/fy8MM/p6m5HguD+sYolvL9UjS1hAiFj5NKBQlUO9m+eSG//tcb+cX9l3P1dx1c8x0HN37HQY8/3sKmRf05VTCTyiNTOXnwHUKucSRPTsGomIB2chTNvkGEj3SlTsqdinuQKO5GU9FLmCUdsEraQ2kHKO1ko0RqbGWw62qXAIomU6WCOSowhatXOiosg6dEJM8EST6+bRVn0xZsuTyP7J1PLjPnTsvnx0inyCUEaw27nFG0siKq5Gbd8gy9cFgiVO7+dthbDgokdC0C68uUyAj5hKXngU80SxtQRPwsD2yHWG3Tw77xj2+L7f/xY5l90Y5UiCPew66pk8FDqkmkEkRC9JUjoHwYHBumHNv6gleIe4ZD+XiSvtHU7HuV+IkpJCpnEfZOxLtzKAfWDab7c9eo8PalFzm4+7ovcc+NF/GrB67m5T/+K80hMQEbSNRWkYzVIaW8kuE6FgxSq2mIAXgyFGLRsmVMnTWLEaNHM3f+fBYuWszs2bOZPWsWHyxaxPYtWwjV1IBmqlpiLZaAlIYRjxOrq8WIC+nivD9jPD+7+2YevOsG7rjpMh5/6Haeevw+fnH/jdzz4yt46olHWLFkvopmnjzmJBI8TnWFi/pIGU11ZUAQ56GVzJs+kIfv/he+4XBw17UO3hn8W04deY+ayRteyQAAIABJREFUwilUHX6b6oKxNJVOTa+GNYfmkreo2NuT6NHeJEsHYp2QIt5uNBx5Uc2/s4RcpySY8RKmQIqMfe3VPDZLonoemcsnpOtuFwuIWZmRQ3dvcPUBab05p9MAmXRA69YqzqEt/KcQLkO8021WOhKZbhW5MmRMEy1DUiGcrG7gy8GBIlw/NS3dnp5ul3NZ7mxVlZ4plVF2qJhrbSFjxp2zFRv2v5ZwEtVSUP5AK1Jmjle8SqqoOw37O6jpRZyQOrehJLxDaCx6lbqjQ2jxjaG5WAIc71Lrmkj82Gz0ikUkKxazK3cgY1/9JY/e/Q/c+kMHV13s4CfXfYWHf3Ipzz5xL08/di933nAZ3dr/kV35eWDFCVSIjybrd6RoTiWUwSZGm0ADduzbo6KJU2ZOZd6i95k5azpLl33A9BmTWLBwNhMnjqGuzq/+urG+Xvlu8eYW5buJKRlXVSApStwFPPPbR7nntmv57S/v4+H7buIXD9zMrx76EU89fg/33/YDenX8A8nIcdDCNEhi3AqBUc36j8aR3f4XXPktB5f/k4Pe7e5kwbg/UV/6Psny+TT6phMoeItU+Ti0k2OIHxtBnfMV/Aey8R/oQYMEk8pfRSvpi9SLmiXZWCU94Hg2nMyBY91VIEECDJIklsoMzdkBTfxoqVWUKLhoNlWh02pgVa6NWFs2RP5MX9uwinvRFij+rPInstuWBZdWMmomh8QQzmEJyjkZ3L3ZQrgB9ihSmA2FPaFI6v+yVSGu4e6F7umN4e2NlXFs2yLceY9nbuRC/TgxKe0koiQSzwV8aXNY7jX9N8o8FhPZ14fa/R1pOiJrWvTHKH0NvfRNFa5vKR5FS8m7tJRNoc43lbqS2TSeWExV0Wzy3u9J599fxy2XObj+Ugf9uj3KU7+6jluu+jIP3H45Lzz1S5545AGyXm7PoJzerF+5miULFqmEcSrRbBNN8lIkVUAjEKqhsbleLTFQUupm4aI5TJz8DitXL2HKtHeYOHkM74wbzsrcRUyb8TY7d6+nORZQpG1qaaIllsA0LeISnUzGSSVlQZ4Ur77SWwU3Hn3oLh6850ae/PVPuf8nV/PEo3f+P+LOAj6uKmvgWXZZwQrFFl18obSltNQl7pNkkkzc6+6SppK6t6mmLlQodHFZFpZvBWtLJWnjUqEUavFkXP7f79yXCakBX3f5gN/pffPemzdvJvf/zrnnnHsuMeG9VXm6j19dg/27fC6V/JPVMwfS46nf83RbD7w7/J7cOXHsf2c2ZZ8uo6l8G3WFq6jNX0Tj8QU05s3GWjxLOYdq8odw6chA6o8Pw1w8GkvJaCzFUhtkJFSMU/mKyrMtZSBUOtsoZVGYD0uuoWYxSdaHXfJPj4vnW+JaAoPWv1wqZiXniYy9rM/Ja3fu5P+11a4nINxo/5P3yfuvtPDcCsj9gHe/bnWe+z0yla1wFB4UTATxwOWPAUlWlnGM2M6SylI4HmfRRJzFEy778tfScj/k0FAODxUwvH5o4Id/jB8HTiBTqTTHtXl6MldPRO2TuGL5VM10/Ho+9QXTOH84U3kUG8pXUV+5gYvFGzj00WxWz40kwvseHrvHg5ee+zVLZqVwovA9sJ9k89ppxOn7MiwjhvkzprI9dxMvb9jJqsW5fPLBZ2zbuIcDXxzF2GhG8hDNVkncNXHh0knAiLHmW61qlauJT//+NptzF7N88XT27lnPq3s38u67O5k0eRChYb3p7dmB2sbT1BvP0GS9hAMndc1TZWwuF1aHXZUt+OrwlwSH+NCzxwv07N6e3j3bkxgXRFhwD3RB3ejb/WnCfTsS5/0sfZ+4mb5P/JrM1D58uHUq3x7aycnP1lGVt4UzXyylsXANZz/Nov6IZHbMhG+WQPlMzEeHw9djcFQOxF4xAL4eAWfHQuUIzMf603g4TZnrlI7VihhJ0oQU85E+JUkUJ7JVZg0SdnJLsZj4MiNiIi7JIy0e1wqoMThLRuMsGdXsKJGxm2i360PntsSu1f6UXMrvvZDX7qMKuJYh1fWHL+5hjMZIK/BEYxcIcIUTcKlZAWO0SlAqf1LU+PjmH2MSLvlRfkTD/ZC7Xjsm8TNJkbm2qBnjMmv8OtI6LCCzzMWdLCIZ5CLWgtEq/cd8TJJZx2LKm4ApbzLm/CxMx2dy7uBUzh2Zxfm8edQUr8D2zXaqSjbw9raBjO/fQZlUzz/mQarhBd7cO5+qcwfBfhqb+STGxhPYzN+ye8caNq5byt5d29j3yh7Wr1nPvr1vsnP7q2zfsoc33/hAc9kLXsam5qpUmucPaz00VYGphvMVBeTMncZfX9/F6qWzGZIRT3xMKM89+wgREX707P0Ce/dtU9NczpyrwIkVi91BQ5MVk1nmq7loaKjHZjUyfGgG3n07E+DdBa9ez5Jk8KRv10fo1rEtD9/twZ/u8SCgW1sWj/LitGR3HNlE1aFc6o9tpC5vLZzagaMsl9rD87CXLOH8p2NpOjxJOYvMh8UMmogjXzyL6VgKE7EVp2AvScNakIrxaIrKllceYAkMqyps4ugYD/kTIE/AmwKF07DnT8FRILHeaVAyA0qmqSQLR+FErapb8XgcMrm2eIyaWeEoGYVDAtolzeEAlfUkWrSVKEgF1HEt/cAhMwrcwyF3q/JoxeN+4+Ke+iNaWfJqNRmLUx70YlEVXUs0ra58HzK0KRiJh9ysqGvNzpUnkrjUNTNM5VMWT1R5lcopoeIkohqvIdccuzW751uONY+z3OOq1q1KDpZYzLVEyr+NUYWJxHRpOjxQPe34ZiY1hwbRcGw4jeLdOpMNp+fAN8v57sss6vOX0Zi/DtfJ12goew3r2Q859OFSFk4MIcrrj7T9tQeene9k7JBAKgoli0PMtwvUKidCDVbbRS5Vi3Zq4uDBf7F9+3pef303c+dPY+uOdbzzwavkbl7B7tckyDyfSzVnqa2TwLENu02Sf2txiPteJpVZ7dSdOCmpHMyfNJkJAwfTo31HdD5++Pb2pEeX7oQG6ujYoTO6sCiaTA6sDrA0e//VNexQe64Wl1HyEx388703Sdb7offphE/nB+j21M3Km9jpUQ8G6B/ltXXpVHy5gtriddjLltJ4OJO6g5OwFWRjK5hJ7YHx1OwfhzkvE9vxqZiOTKD+wCjqvhxGw4HhWI5IRo04LKQzSXa8NnFXsijU7AcZ14j3UNVVkdJ043CqTByxmiQNLhMKsqBoGq7CTJwtMkV5gp1FkzQLqmhC87QayfQXR53kREr2SHMGiZisJdKXRAlMUBpRtKLSjCUTcJZMwFUiYR85Ln3M3e+kP8twRsZfYrr+JyKMXCnjWmK+mjksaVxucZvGWisPAfH2e9hLxuIoGYOzVBNt4DkOlwoca19QfUkFwjVAc8PX8iXdX7Z1K380GWP9gDQPjt2D5MvaojHUfSGTMrOgYgLmvBFwYjr2kkzMYrKcX4TzzBxK/9Gfyk9HUle8BOuJbVgrX+W7A9t4Z+14JqR68/Q9Hjx7vwcvPv4Huj3blkEJfpwt3w+2C1gaz9LUcJaLF06oMZMLM0ZrHQ3mWi7WnGfbjq28snc3733wFtt3bWL7ng0sXzuX197dxqvvbOGTz9/GaL+AxS7TWSw01tUi8TIBxdlox3iuGmwu1i9aRnBvL3y69SLE0w9DqJ7YcAMhviGEBoTh1cePfXvforHeprTlpYsNmBps1H+nvR+bHRprOfz3d8mI8FKxPimXIFkr0wd248DbWVQV5FJTuIqqY0uoKViMsXgeVEyHMqniNRHKJ0PFFCifAiWaWWc6MoKmQ8NpODhMSdOhEVjy5EkuNS4lmV3GziPV5EuxWFTHlg5eKFn0Y3GppImJOI9NwnlsMq7jmUoomAoFmYg33FU4uVkm4VJxKbGcZLgyHlezn0Abb2lecfGMu0NTmokm4Mt4T0SGO+NxFmuigGt5gEvfa3ZmtAB3fafK9Zwt/5f9P+TQEVPYLnP1Skbh4Sgd95OB+6Fx2vdPldagubebNWbRBLieqKC7/AGvIcrxMUZ1mOrPB2gu/G+W8d1nY6k6nMWFw9OoLZwHUmu+ajeH3pvApjlh+LXz4IV7POjx2M08cqsH/t2fIi64O0G9niNZ78Un7+6i4eIJcInDXoLKRlwukwoAn7twlobm3MQj+Ud5eedOdu/ezbr1a3ntjb3see1lXt67hR2vbCR3aw5fnyvHZK/FoRz+dupralTMTHKmLPVmmmoa1OsgH3+iwyLQBQRhCAunU7t2dO3YgVA/H/p1f4kRA9KwN9ZgqjmPte4C9sYqIRbqz/LpW9vpH9GXZ+/1oMMDHiQGPMWenCFUF0sB0neUR7WmcCVnD87i/JFsGorn0Vgyh9r8yTRJPZri8UosBWPUxFoqMnGWTsaYP5rar4ZSLzVSjo6i8ehoVc258YiY6RNxlUg8UsCUcb1AqHV8zQISYCbglKFJ4aRmoASuKThV9pJUDZiMcs6p5ApJsJjYLBNUNQH1N5eHsdJgV1pBzfCoxActueFys04z764Gzt33mq22H/Bi/l/Aut65Pwacs0Tqzoz56cB9Pxh0e2SuaFueLlf+YO7XMvtAzNMbkQlwYiq2vDFqciwnl3Fp/3QuHpynVuOpK8rl+MfTGW54gG5PePCMFCf9owd+ndqQHvIi/drdz8iUCAYn6Zk2dhBv7NzAtrVLwVYP9iY1fQS7CVOTZIE4cDikaKnUUoTvLlxg+cqVbN++g92797B+wwZef/N1lq1cyt7X9zJv8Vzyi/KoM9ZissksaTs2qwmZTyaue0tDIw6LherqGlatXkNwcDCRkRF49etFWIgvQX69SY3ToQ/qRarBj7f3rMZeLTG873BUFfDmtnnKTJSaJLqX7mDZRB1HPlhCfdk+bGfeoL50K998tZhTn8/km/3iDJqGrBNgOzkXvl2I4+RM6qV8XpmUaJiMo2ySqjQlLZVTlTjKplAnGi5/DOYCqbs4gfojo6k9NJKGo2MxyZhMtGGpwCcODtEqYsbJa02Uc020lpppMkW1YjLaCyZiVWapTElyJ1hIe+XD9xrWj7J6muPCUkTpsvH95ckQmikpfc0NmrTuvqeZfmK1/WIiv13puNbASQzFrXavNik1F/sVkLWOebX+cldtu03TG4FNe4+UgpOsGCoXU394Hq7KbWqVyn/umsDE5E7c7eGhyr35dLmduOA/kxLRhf7R/RgaH8SquZm8vnMz23JXs2XtKv72zpsc++qAmp5Sc/68mvsleYkXz0uFYMkRdmK3uzCabHzw1495Ze8+tm3bzhuvv8HLL+9k567drFy1munZ2QwdOYpjRcVYHVINRP5z0dQo4Nqwmeq5eFbGgFZOnT1FSJQO/1A/Orz4LH36vUhMjB9R4b3o/dLDeHd/iCnDg/ni/Rzmjw+m++PazOfM9E58tH0Epz9fzIUjy7Gf3Irj1BYuHl3Id19lU5U3i/OHplBfMF0tzmE/MYOmonFUHR1MTd4gLGWj4evJuE5OobFgNLV5wzEVj8NcMoH6/FE0HBuNrWwK1YdH0HBsrDLRjYWTqMsbS/XhUdQckdIQ43CUTlHaUDSio2QS9uKJShwlE3GWyusJuLedpbJPjo9XZcRtKl/y+7BNS7hGLJfWwwwBTOYdqrmHEvQep8WHxaWuTEO3e94d65L9btOxWZO1ACewubXmeDXG+8VgE9O7TGZBTMDDWSZT+zXYnC1qV4C7EpLvb771F/np2z8Mm2bLa+bJ1dsT1ZOS0lmY8udSe3gp1HzMF69mq6z7B272YGSyD4lhXRmc7M/KRRNYOHMU77y2hU/e28e+nVtZvnABf333PT587322btykeRPV3K+6lm2beChcMjfMQlOjha9Pf8vWbTvZt+8N9r7yCps2biAtLQ0vL29i4xJ5sUt3tm7fTZPJjtnqVMA5HDbqaiX2ZsZhqcbS+C0uRzUrVs8lIKwvXgFdCQ3vTVp6ELrQF/Dt+zD+ve+j89MePHyLB92f9CCr/3Psf30sF4/kcPHIUmwVa+H0amylC7AUz8VcPJuGY1kYi7JoKpzMxYPDsJdnYi0dj1HKtsmk2YpRcHosfDMezkzEUjqW8wcGcPbzNGqODqc2bwTfftGf774cQOPxsVQdGk5d3hgaj0+gqWAiDcfGK+jq86WE/QSl+VQMszRTwWcvmYxNoCuVuOYk7AJY6QTspeOxl0qtFk1sJWLKitPietqnuZ8JeAo4meQ7HjV/8Ng4XPljVfEezfHhBq1164bRDZ+m2VzFApk4VkTrappZ+vTPJe4q19du5fMn4yoV4ErFyzNOg04Bp8EmHiDN/NMG1Zq9fqPQtb6WXO9q+X4QLQPpy0VME0qzoGwOrrIcbKVb+GxPJqEv3sXTd3owbUQSA+JCGDcshSH9YzFEBhAe6kNKUjTjxgxj0YK5fPnFl6xevZY9e/ZSUFCkdFFNjcyQhqYmM2aTFYfdhdlsxeGQ2c92Pv33F2RlzSA8PIJuXTvj492HiAgdMTEGog2xROgNlFWcVlNb6htN2B0O7HYzJqOsElOLyy4ey4vs//wvhIS8QIS+M36+T+HZ92HaPfMrbrnJg8fulVr9T7J+fjjlXyyCmjewntzA+a9mQ9UOtZSS8Xg2VftHYZGY6cmZymEkK/HUHBpC7eEhmAtGUn9kEI6yMfDNFDg7GVvZMBqOpdMk5ePKR2ItlcKwo2nIH4WlWIqXTsJUOB6jVGounkTd0dHU542lIX8cjfnjacyfoKQhbzxKjsoqNBOxl0zFWZaFozQTW/GkZui+h00As5VIgdQx2MvG4Cgfg0vuq/RKD6Hb4yfmnngYm/uImJ2FE5UTRpU0OC6Fe5pd7gJuSyxMQhatRGlA0XKaZhPInCWTcBZPxlk8SYPvlwJO3ccUnCUTBTi5sfEadMrGHY96Oqixltjdk0E6vLLZb/AJoVy4Es+bfF1xFE7g+jIRKmZQf3gi1uJlmEu2smikLy8+6EGMX1eGp8bi3fMlwkMCGDN6OBn9U0hKiSchKZYx40aTmp5KUmoam7Zu58OPP8FskzAyWGzietc0U2OTsRk+yd6AN954g65du+Lv7098nIFRowbRs2cn/Pz6kpQcRz9PT3bv2YtdXPdWbcxntUkal2SV1NPUcAKrqVIV9Zk2xUCn527imUc8aPe4B52e8WD6WE9KDq7lzLGNfH10NU0nt3Lmq/mYKlZjKltOU9ECLKULqDs6DVf5HC14XDlVZf1YJf5YPB5j/kjqDg9Ws9gFuoa8oTTkD8EsSecnJsDpyc2SyaWDQ6iX8nKyMMWxcZgk/lUyVRUsqj08BlPBFIzHJ9OYP5HG/Ek05k+m/uhEag+Pp+rAGGq/Gk9T3mTsxTNwlWXjKJmOrWgqtuJM7CVTUBqvZALW4nFa4SXRbGI5VYyDivGqnJ0KjEtwvHScWvnme20gnlMZI4rXNFNVunIVSxJ5Jo4CmS09GXvRROySwCBe0UJ3NpF7Sk9r7aZpTFfxJJwlAtsUBZ2m5W6w//4EUL//Ltp6Dpe9LpmEQ0pqFE/CQ2xLh6jf0glK1IklUt5rEoh3SmUENLuP1X459n8VuZaUbZDrXFsENkozldgLZIasxAc1QNWgu3KaKrJZlzcXU9k2ej3uQUpwJ7o8/QAJ+lCGDsxg5MjhjBg9kkHDB5MxuD/pgzJIzkghNimeCZmTCQzT8c6Hf1Uhrer6OqwOG00WWcHFqWovSha9zJy+eOk7Ro8ZRmJSDGFhgQQFeREe5k1qip6AgN6Ehfmjjwzl7HdnqK2voa5BMvDtOJxGjE2S+1jFl5+9xuQJUTz9hAeP3u/BQMMTrMjyo+AfCzGe3sv54+v55nAOtSXrqS1ei+XkRhpKcrCeWIO5fDlVR2dhlLXJKpdy8atJWAqnqrUC6r4aiVEma57IVgtLnP98sFrrTNLVmo5PwlY2HU7PxVI6DWNRJraKmTgqZ9F4bDJmNQaeDV8vwFUxm8a8KUrsJdlqfTRrUTaucgkhzMdVPl/VuGk4OpVLX06g5oBMoMzGXjRXVXZzlswFmYZTPJOGIzJem4azbJoWfjgxHU7NhFPTlaPGXCiacyR1+SMxybjq1DRcJ6ZhKpqISWJxlTNwVMxQ928uyoKTc7GVzuTigTHUHJ6o1rVwVszGWZ4Nldk0HR0HZVk0HhoOJ6dpYzX3eLDZMnMD5yiZgkP1PemD1++37rje9dofeu+PH5uMqyRLeXsVcCpweBVwzYAUyyxweerIa7npG5Efhk0g1MxGDTjJPrAXSBEjzdslywVROQ1r8XQaji+gKn8dz7TxINLrGXp3epLk2EjGjxtN/0EDMCTGEZ+WxIhxo5g0bQpDRg0jMi6aEH0YcxcvwD80iG8ufKtSpbR691ZqmuslOlwWLlz8hl27txAWHoCXdw+iooIJ0/ng59uN9LRIoqMC8PXtwf/84wOcLjMWe6Oqu1hSlseGjUuJjvbi9ts8eKFDG+ZkJ/PVl9v55weLaKjcg1mKtZ7Vlqw1VWylqXQjTWUbqStag1GyPQpzqCteSV1xjqrYVX18CcbyVZjLV3DhQCamwjlYiufRdHwW5uL5mGSV0rxsao/OpProTM4dmEpN/hzMZUupK5hP7fH5NJUsoalkMVWHplF9KIsGgaZsEZxYrmrZ1Odlc+lgFlVfTcdWskRJ9VczaTq2AM7J2mdbMBcuoeHIghZpyluIrWgZVKzEVb4ca9ECXOVLsJfOx1Qwk8b8LJqOZ2EpnoG9LBtbWTacWQjfLYNvl2KunEtd0XTqi2diVCvDzsdUPh9zheS1zqdBxqkVi3HJgiMnc2goWkB90Tzqjs+iqXAWLimuelY+fxYUT8XUnBHT4gUVc7J4kgJNA26KGkPdWN+9kf5+5Xvk86fhKpkqGm4KLuWydGs4t3a7Ejg5TwZ+NyACjpJMXCXXFlH9lErRTDGbJitxn2uX+E2FZKRnYylbwYWjq3noZg+ifP5MbFg/RgxNZ+iwgQwYOoC0wemkDEojY9gAhoweysBhg0gdkMakrEkMHzOMYaOHMmfhbE59c0IVJT17/rSKu8nkSwl2n/mmnMyssUTHhBIY5MnQoWkkJ+nx9+tOSHAfwnRepKUZVNyuoOggCUkRPPhwGzxu8iAopDsbN83lk09e5uyZzzn45R7yDu2l4btPqC7aQW3+er47sJyz+5dRe3wDDcVbqDm+gZrCjVhO7qKhbBsXC9ZTXbwJ46ld1JZt47v8tZw/thYJfdQcX0VjSS6Wyi0qsG8/tQNT+Ra+O7SCc4dzOP3lYs4dWUVt0SYu5OcqqSrYyIW8NZw9sIALhxZQnbeExqKV2Co34Dy1BXNZLjV5yzGVyMqiuVjKNuE8uR175VYaC9dRd2w1jQXraTy+gaqvVnP+S0kPW42paCPm4o00Fayj4ZjUz1xLY0GOqlNiLF6BtXwV9srVWMtXYirL4Xz+fBoqV9F0ci3VJcupKl5O08l1GE/lUlOaQ03JSurK1lBTsoqLBSuoK1uH5eutmE5tprpY1hRYQ01xDmf2Z3N2/3Tq80VDS4GhiXB6fnOupgToZegiYzcNOM3c1fqfpjSkX/9/Syau4ulKyyngxKzUoHOrXCH0WsAJdDco1wHNDZW0buBa75NtR7HIVJW17pI/UOEmnrrTg1T9S4wdFs+E8UNIzUhgyMjBjJk8hmFjh5EyIJWE1ETSB2QwbOQwktISSO2fRGJqHIOG9ScmLpJhIwaRNX0So8cMxdevL4aYcKXZbrn119x3fxvuvuc2nnvucR5/7H46Pv8kzz/7J1Wau23b33Pffbdy2x2/4rEn7sEvsBvxScF4+XTE0+s5khK88e73FHFR3UiI6kqEz59I8LmPEfpHGax7kEGhDzIu/s+MMjzFoLBHGRPfjlivtgwzPMOQ6KfJiHiMobHPkh7xBHEBD9Bf/wQpwQ8R1bcNqcEPMTT6aeJ97yPW+x4G659mZGx70nWPE+/3AIkBD5MS/Cfi/R8mIeAREgMfxeB1D8MNjzPC8CgDdPcR53UrUb1/S5zXbST730WS312kB99Hst/dpAbcx4DQh1Qb0/d21Y6Ne44hYU+S7vcwKT5/ZEDQIwzRPcbA4IdJ87uPNP97mZj4LEPCHiTZ53ZS/G6nf3BbMoLuJMnnFgz9bqa//o8kh96Dwfc2on1uIynkHjL0D6p9Ud63kqK7j/jAtiSH3suAqEdIDfsj0T53EB94N0NiH2fnqkT+/eZELGdewXRiC/UFyzEXLVFl+R2FM7UczSLp2M0xwGIJX0xuHl+6gbv2cEYNc5qHM+5hzVXtdYZC1xsiXb5fKuHNxFU8TTRcJpRLocpJCjpN7baGbapS28q8u1HY5H0/ATjRctcCj9Jp2AqnYS6Yi6NyAw0lL9PpIQ8SdZ0Ykh5GUoKO+EQ9UbHhRMXrSUpPZMjwwYwePYoRw0YweOBgRo8awdhxIxk1ehgJiTEMHzaI0aOGqUB3WWkRr+7dzb//9T98+uk/+euH73Lo8H4OHznA/gOfceir/fz9w7/y7//5hEP7v+DAl/9m7twsRoxMZ+DgOOKTQhgwKJrJkweSkR7G8MHRDBsQyfABkYwcGMlr2xZx9J8vU/HVqxz793YO/C2Xo//YysGPNvLFB+so+uIVDn2yjbNFH3Ls091sXjaayUND6W/oQXpUN8b2D2DysDCmjY5i8fR0ssfHMizZi5njYnl712IOfrKTY5+9xv6PtrP/bzs4+PFO9n+0g6P/2suxz/Zx4ONtHP7HFv766lzWLuhP5vAARqf3YdwALyYN8WfiID8yhwUxZ0I0mcNCGBLfk5lj9HzwykKOf7abw/+zg7IDb1Hw733k/+MVCv79GkWf76Poc2lfpXT/Pv711ip2rBzLzNFhjMvwZMIAb6YM8VMyaYgvk4cHMyCuu5L5UxN4c+cc9v99M8e/3EN53hvkf76LQ//cxtHPdlD01V6OfbmL/Z9sVJJMRIfWAAAgAElEQVT3+XYWTY/mzps8iPRsw+dvTYXzr3PpyBJl7lK2GKeMPyVnsxk68U4q4EoFOhlD/QBscuz/BbjpeNhFBSszUVq37SnAydhNYMv6fwNOTEdVpKfZtNQ8TFOgbCaOotkY8xdgLFxHQ8luejzpgc9LD+DV8xk6dXyMbj060P6FZ2jf6Vm8ffuRnJyoYBsxeASDMwaTnpLKsMGDGNQ/gwljxzB8yGAunT/Ht2fOYG4yYlQTO1FzzZSbsvkfWVBQxefEremAptpGtbrnzh2bWbhwBitWzmF5Tjbbd+Qwa9YY1q9boKbd5ObMY0POQk4XH9XqNNovgfMiDvNZnOZvAalqXAO28yqX02X8lsYLZRz4x5tszpnFijkTWL90Bi+vW8grm5eTu2I2m9YuZNXSGcyZPprclXMoPPovsFQpsTV8R/2FEzRcOIGx6jSW2m/AJgWH6nE0nsXWeIr8Qx/w8paFLF80gZwlk1ibk8WqpZksWzCRTWvnsHpZFkvny/Y8vvr8fRwmcQDVguUiWOvAXIuj4QK2unNglO8js83rwVrFoU/f561X1rN26TRWzJ/EqkWZrF6cyeolmaxemsWWtQtYvTSbPdtWU3T0U6wN3+I0X8DW9C1YL2hiv4TD9C3m+lPa70I1DVVlFOX9jU2rJ/HBXxYxIqU7T97lwd93j4Wadzj9z2lUHZC1C+fiLJqBq7nUowacxAcnYS+RsECzEvkx8H6W46LhsnEVz8DDfHycWmhR03CtTMn/Z+AELlvBRCVuLdcCYJnc7ELMx5ZTn78OY9k+fDvcSqfHfsczj9zG44/cyWOP3cufHr+fZ559nJe6dsLb0xNdoI7EyCQGpwxh+IChDB80hLgoA2FBIczIzKKhug5TvRGn1YW50YLd6qK+zojdBjaryszCZJR0fXBZwNYAf//gH6xYksP6tWvJyVnExs055G5Ywpy5E9mzO5ddO9YxeexQtq9fS8HBgy2lEewuB412Mxa1cJMsuuvE5pTpNo1cuvgdDTWX+PcnfyM3ZxnL5s1i7ZKF7Fi3ipfXrWLdssVs3rCeFSuWk509Q5W8yzt6WGXKyFPAYm7CJgty1FSp6zTVVWuzwW0mnJYmLp0/w/79/2D33q0sWT6PpSvms3b9Ctauz2HVmuWszV3Jth2bWLJsIZu3bqC4tFClqJmtRqprL6mpRlaLHacdrGY7Rok5Wh1SR5aL5y+SdySPDevXk7NiOcuXLWXd2jVsWL+O1atyWJmzjDWrVzF/zjxViezQ/sNYmiTtTSXlYLdYVcFZh6rQbFffw9hYi93ahNlYR/7RA+o3nTIhjY2rp/D+a0sYYOioisp+tm88NLwLp3KxFc3H4dZyElJQY7iJOEonqgyYXxS4Yqn3Kn14Jh6NR8cg0MlCEiKXOzfc5uRUZeq5z7mxVlbnbCWlkjj7vYg3Se7DUiBJntq9WAsnYJNAaNkMXKULsBUJcLJU7utE9r6bDo968OSDv+H5Z+7nxU5P0aHjM3R84Tm6vNSJ7t260qdnH0L9QkmKTiTUP5jQgCBS4hNJS0hi7sxZOMw2sLuwm+043cUZnVpZfIfMqrGj4JPS++Z6J6fKviV35UZWLlvF4gUL2bxpPVu2rFWabsuW1azMmc/CedN5943XKDxyRGlEKQBkrDNhckK1za5Sm6WeySWjiXqLLLqr5Th/8sknqmOuWLqEXdu3sn3TetYuX8qGVTmsX7OK1WvWsmDJUlauXcuBw4dVHNFss3H+0kVsTgcOl1OtNirz5OrqaqiuvkRdbTXffXuGo0cPsWb9KhYsnc+i5YvI3ZxL7ub1LFq+mKUrl7Pl5W3krFnFpm1b+dfnn9NgMqnQicXhoNGsrQ9nNGuxS1H0qmCYzKmwODl4KJ9167ewPGcNS5blsGLlGtat38SqNbksXrqcFStXs2XrDl7e8Qr7vzxCQ70Gm8XspLamEWOTPNnkAefEZLRgEQDVfEIjx48fY8+e3SxcMJvcdYtYOG8cm9ZksTQ7XVWn3rE4jq8/Xwxnt2MtWqSFK4pm4CyeqgW8SzTYJBXtx0xKdwjqeu3lY7IfMU+v0pJiJWaDaLiGo+NUPMciwcWSqbjKJdA6DUfpVDXglFamdrSG40a2XWVTuVwycZV9L5Kj971MwlkmIotcyFNqCiZZb+vCGs58PgXTic1MHdSJLk958MzDHjzz2O089cR9PP/8U3Tr0YX2HdvRrUdXwiJ0+Pv70LdPT3y8+pEQG4MuOIjEuFjee/utlgRjKXpqs0jA2oXLqZX/tphNOOw2bFYLDpud/CN55K7JZe2qNbz+2j425OaSs2IZmzbmsmrlMl7/y17WrFqu5Kv9X2jq0eXC0iizECTCB6fPfUujTZbbBSlNJwsTGm1G/v6vj5m3aA6bt2/g5d1blPbJWb2Iva9tY+HimWzYvIqcNctYuS6HY8X52uKGxlrqTbXK02q2N2FXNcFsmGyNWJ0mquoucLHmHOUni1m8bB4LF2erEg5bt69j85Y1aiHFTZvXsGVrLmvWLmdd7ko1ZnW6pMM7sFiNGE0N2OxmJbLCjuw3mRrVajuyffjwQRYvXsDWrZvYt28vK3KWkJu7ml27tqvtV/buZNXq5axbt4rPPv2nZpO77Jz77httwQ8c1MnKPcZ6XKLtjfU47GbsNiNFhXns3rVNLam1fv1K1q5bzltv7WLposlEBb9Ixz950K+dB98eWqc8q7bSlbjKluAsmYO1IBPrcUnomKyyTaxSuUA9xL9/wF/Zhy/vm1f21an/Uf+XcIDARkkWHg15ksIzUWUZyGJ3EkB1lk/HUZ6FvWyqap3lEtSUlJ7/pmTilJJ0SqaofDzJydNkIo6yCa1Egp8zqD8+GdvJpVhPb2BfbhLP3K8B91LHB+ja5Rkefvhenv7zk/Ts05O+3n1o1/FZnuvwNMlpcXh79WHwoAx0oYGkpyVRXHRM1RmRP7JWh87OhfNncTq0+iONDTXYbSbVEQqO57Fo4XzW565VkK1YvpTt27awcUMu69au5u233mD+vDmsWrkCt6lntZhwOqRUkFMt/WSymlSAXYxJk82IzWVR8b/PDvybbTs3sWL1Yna8soVlqxYwZ9F0XnvzZeYsymLbrnVkz89kxZpFHC89itnRQL25GouzEScWjLY66kxVqpV931w4hdXVpOSvf39HXXfZygUsWDSDt9/ew44d61o08pYta1i6dA6bNq3i4MF/K7vZZm3ikizMIcnX1ibOn5N1DOR7WDlzphyHQzJxLHz55T/YuXMTL7+8kfnzZ7BmzVI2b16jXi9dOlcdk3bDhpXk5e1X057q6yU5XPS7BZOphtpamfArv7cFp9OIxVKnrl9RUaAm+65evYQdOzawdu1yNmxahzwgJk0YhE/vZ/Dpeh9tPTw4e3gD1flrMBfl4Cxbiqt0HvaiaVgLtNCSQCdWkgAm6WjXk/9u376cE5WWqGa5T8Xj+3SeiUqL2EqyFHAKurJpOMqmoQGX9V8Gzn1TAt1PAO7sHC58NRrOrcV0Yh1HPpqpgHv6IQ86Pns3Dz1wG+3bP023Hi/xfMfn6d6rG97+nnTr1ZlgnR+BAT7EGPTExUaxetVy9TQV0KqrJN9RdI5dwWY2NainrLyuqb6gNNewoYPon5GmPJ3jx41h6JBBZKSnqn3paSkkJsQxauRwPvv0X2qmt2YkOtW2sUnm2kn6mITZbdQ2VtNoruNS7Xlee+MVho4cRNqAJEaOHUJq/wTik6MZMCSFwSPSSB+UQHyKnsnTxrD/0KeYbA2ie2g0i2azqqV8axouqm0xVhtMNeoco7WeN9/dp64blxRNWv8EUlNjGDt2MIMHp5CREc+wYekkJkYxduxQPvrbuzgdkpYmM9VN6reR8g2y/LA8gGSf0yGgWLFaGtT5I4YPJD0tgbFjhql22ND+JCZEM3hQGsOHDWDUyMFq++OP3sNuE0itNNRfwuXUrmNsqmnZbmwQ7WlV5737zl+Qaw/on0z/jCQlM2ZMoUevrnTt1pHePZ+n47NtCe33KA/93oPakp04T++k6fhS7CWybsN8nCUzsMl8PPF6l2qZJr84cKUzVT6wh6UoS+XR1R8dT9OxiViKMrGXfg+dGzzN1MzCVX5jIgmvmrhBc7du4LS5Wt9ruNZabpKqO2+XFKWSedQULSfv77No/7AHUofkiYd+R9fOz/Dii+14tt0zPPHU4/Tu25PAED/6evUgJjaCoEBfevfqxtTMiZSXFSnNJVWvLOZGJQKYmDPGpjp1rL6uih3bNytQn3v2aXx9vOjZoxu9e/Wgb59edOvaRb327NdH7du1c4eq8y9wXbwgT27xtDiouiRPdada0req9jxGSz3fXfiazdtyiY4Np49nD3r366bus12Hp+jRuwtBoT48+/wT9OrbBR//3uzYtUlBVd9Ug8kqmS12rA4TdQKvqU7tszll/p4dad/769vqu7d/4Tn8Ar3VGto+Pr3o3r0jwcHeKjXtxU7tCAr0Zs/u7TTUS7K1AFGNtlacA2OTmHeifRw01AscVgXfa6/uJiTYn5e6vEDnFzvQscNz9OvbE89+vVT77J+fVNaEl2dvVuYsVQ8t+W1ra2QGhfZQk99WqzgmszNsNDXWKvnwr+8SHhbMn595Qv3uct3n2z2jrBIfPy969X4JXUgfArza4dm5Le3u9+Dw+zP59uBi6vIWYi9ZCJXzlVfbXiSOE80n4TYnr6fdZP+Pabgb7ffyPiTlTYArm4aHo2wm1uJpCHBiXspYSTMtRbM1m5dl2rjuxj9UTFI3cFdqymbgZJ6VyGVmpUAnMgmrpJRdWE5V3nSqCpZS+tli/nSHBz073EHXDg/Q/tmHaf/803SWjvDSi8gfyC/Am84vdaCfZw+l2STu9veP/6qK78hTW8TdCeRJrq3UqWm7TRvX4ePdlx7du+Dt1VfBFRwUQNeXOtPphQ74+0mlrG5EhOvUIhlNjWKaiktBBv/iDNA0m/a6gXMXvlEZLUZLLbte2UqwzpdefbuiiwgkINiH7r064xfohZdvH7r36kI/714Kxnfef4Nvz5+hoakO8RqKprTazarcXpOpQe0/c/a02ifn7Hv9VULDgnnhxQ706tODnr2707N3N/r27Y6vTx90of706d0Nb6/eyHcU01l+gypZ1018pw4bjQ3y0HFgNZtR9TCVS9HJtq2b0EfoCAzwxd/PG18fTwL8ffDx7kfXl14kLTWJTi+0V7/X8mWLqakWyGT06sBsalTjNlm3wGoxKs+qQC3bcvwv+/YSGhLIi506EBIcoK7Rr28v/Hy91DV9/X3o07cbfXq1JyywE15d2qqFQ87lbYBzr9BwbJEGXIXkeM5QyRJub7c45P5TDXfjfV+Ak/IW2ar1cJbPUsBpGeITaTo2CXPhFDTTcgbO8hmaWXkZMK3h+anbWnLr1eAJcNocKw241tC5x3STscjshW8WYpRcu9JVNFTu5N7feNCvc1viInrz2ENteO7Pj+Pl3Vc5TDp2ak+vPt3x9OpJSKgfa1av4PSpCvVElSe5GzZpRbPJE1w6nozpdu3cpp7ivXp2JUwXpDqCn683YboQJYEBfohmEwDXrlmF2SQmkwabw25t0XTfw1ePw2lSRYa27sglIioYb7/eBAR74RfoSUhYAL7+nujCgwkI8uWlbp0JiwhVhWGljqULJ9+d1xbaaDQ2cuHSBWySeG1qoqZO1gTQ/t+6fSuhYaF07NQRb19vomOi8Q/0p59nH0Tj+Pr0pXu3F5XG2L5tE5cuiiZ2KE2mvoNLtLJLOZDMRlOL695qtrBzxw6CgwLp2KE9/r6+ePbri5dnP7WvZ4/uBAUG0LdPbwxRUeSuW0uTrHza7PsXB5RsN9bX4xTXr1r8UdvXUFfHB++9p97XtUsXfL291bZc29vLkyi9nsAAf/wD/fD160eXF58iIrgzOs9H1BiuvuxlqvJXYC5eiqNsAa6yWThLpuEUR0WZdPYs7EXikJuqHIHiBLyWXN4vf2qf/mnnSeIGZbNUJTQPR1k2xuMyNWOKmpYhWk6g00xLGcNNx17qhuW/3coNa6aleCIVcFdpOoFuMnZVRns21vJFmCvXYTnzKv06eNDh8V9h0PVgULqB9u2e4oUX2tOrdw86dGyHr58n8+bP5NDhL6isKFFACVRi0rgBkye8mJUCnshf9r2izM8+vbsTGxOJPiIUz369lUYT7SaQGaIjidSHK4eJuN4FLHcrmk5bUdSJwHfh/Hfqug2NF1m/cQW+/r3o3bcLhtgwlUbWt1931ZH0kTq6de+Mt08/0tJTmD17llr+t6amGovFjLj7jUYjFy9eVOJwOLBaZZkqKTgLH330EeHh4fTq1QudTkdoaChxcXFERurx9vYiTBeMfKdIvY5X9rysaRy0e1QPC5eL2urvV+ZpqJOlg8FsNPPm628SrgsjIy2d5MQkwkJ1CgRDVDSREXpiDTFER0bRp1dvNuSup+qiLKmFup7FZMZmsSpPr2zbpUy7TWJ6DkxNRt5+8y10IaHqvTHRBkKDQ+jbuw/BgUEE+gfg6+1DfFwsnt6eBAb5oA/3VsAF9LyfSM+74OJbXDy6BEfFCpzlC3C4x28CnCqclKVmWWjAyTy+a4vMdPi5RNanoGQWlEzHwybTK/JEq2XRdEzmQE1QpqW5UMZy03GUzVDAOUolVHDtm/0p+7UvMx2neEEv+3IadBpwAl0zeDJtqMW8lHocU+HUPOqOZSvgzh/fwPThffnjrR506/gggzNi0IX4kRAfQ3i4jgi9jpd3bqWqWrIlNO0loIl2E+iUuGwKPNFwAt6SxfOJCA9RnVLGKTLui4oMIzwshOSkBBLiYxHtpgsNVrDV14k55qShXip1OamuuqhMSfFQyrbNKg4CpxoXvv3Oq+ijAujr+RIJSZGE6vwUcKlp8YSE+jNgYBq9enUnMNCfbdu2KpDssgqphBDOnaO+vp7q6moEtKamJi5c0MpBWCwWNm/eTJ8+ffDy8lKQxcTEtLS+vr4kJSUq4MRTK5pelYBwOVruTzSQaDEJX9itdqwSn1SwWdj36l8wRBno1aOngkuA8OrnqSAJCQrGz8dXwSaAvPrKXpoaGtV16mu1mfQ1VdXqWgKXXFM+RwCU7Q/eex+BzLNvPxLi4onSRxIUEKiunRifQFJCogLd388PXbiOyCgdE8YNpEfnh7jjVx5sWpRAY+UOLhxdCKdW4qqQKUVZaqKu0nCVM9S4yXxMqhr8cN+9vE9eDd9P6ePXO8dZMh2KBTjJNCmYpuZEGY9nqvlSMmdK03ZaqMBWMk3NQWoNiqt8Om6RiaE/Scpnqiq+UslXyWXvm65mA8iMACqkFJ48nVqLzJGaqeZDyWJ+5oq1NFbsZHV2NMG9H+FP995EkHc3BqQnEqUPQx8Rxs6d22kySm0RKy6ZRmNubNFq4oETD6TsE/Bk/LbvtT2kpSYq2PpnpCiPZnJSHIMGpqsxiwDn7dWPGEMUr+7dg3vM5nLaEcBEq8n4R7SaAOgOCVy6eJ6P/vY++shg9FGBROgDCQn1JSDQU1VMjorWqXl38oAYOLA/a9as5vDhw9TXN6ggcFOTkYaGRgWbwCUaTdLNBEabzcZ7771HYmKi0mpS/mHo0KGqDITBYEDAi42NxWCIxhCt56039zV7Z8WMtCL3LmJXaTUojWM1azCYmsy89877DBsyHK9+XgwaMFDBIZpO4OifnkFqcorSbqLp1q/L5czprxVIAq4broa6erUtIF6QxR6bM0z+5++fEB8bp+BNS0lVmjMuJlZdT64vWjMiLFzBFxEezoCBA0lMiqVHt+d49olb6N7ut/zzjRnUlW3BVLEG54llOMrnYC/Jwl48BYeafdLssCibjutHrLSf1Icv67M/sd/Le2QeX8kcpESIh/FYVsskRHvpTGwlMxR4ou0003Kq0nSu8hm4hYqZtBbZ3/r1NbflQ1uLukbrm3ZDJ8BdLTJolQmIpuJ5WCrWUV+2g7WzDMQFtaNHx4e4/bcevNDuaWKjI1V8rLpKNIAdk0k8YJpWE8+YuP0FOLfX7czXJxQQApaM11JTElRis8TrRMPJ65TkBGVCDhrYn21bN3P2m6+V5pJOK+BJK2Mg0WjSyqqkotnEeSIxuoED0klKMpCcYiA1LQ7RaknJMcQnRBEbF0lsXBRjxoxkx47tnD59Smk1Wf63qqqa8+cvUCedVlaWq6ulpqYGAU+03l/+8hcyMtLp3LkzY8aMUaCJWSmVwaQV2JKTk0lPS2XXzu3KrJbvLb+DOCzkfuXe1cNBPrAZhqqLVbz/7vuMHzuesNAwggKCVOcXCNJT0xBAxJQUbTcgoz+zs7NbzEi5Rl1NLS6HjAc1jea+rrQC3fat2xANJu93m6UCn2g7+Qw5JiLbsi8+Lg5PLy/aPf8M97S9mQ5/bkNSRDtOHt6M6dTLXDg6H0flYhzls1Tyhl3KKkhqongHlcPCDZzbwrq6vWafvaKf3/A55aLd5kLpbDya8rMQ6MS0FJFJnqLlNOAmYyrIREIHGixu7ZStVgN1aytXmVB8hQa77PUVsLWAJ+BeCzrRdG7R4JN5Ta6KWdjKF2E7sZ660u3kzollcFxPDCHd8e/XhQ7PPUWb22/hzja388Tjj3LvPXdy220388TjD3H7bb/ntlt/R9u7bue+e+/i/vva8vBD93PP3W34lYcHv/vtTdz0Kw/uuP0Pat/vf/drbv6Nh3rPLX/4Lb++yYPf/PpX3HH7rTzy8INK7rn7Lu69py1/evRhHnzgfh5+6AHuv+8e2t7VRrXy+vbbblHXf+CPd3PffW24s80t3HrLb5Hr3/KHm9V93dnmNnV9ue8H/ij31JZb/3ALbW6/g0cffoTnn2vHww89yN1t7+LONneo43JOmztu56472/DH++/jqSef4Pbbbm3+LjerY/L6tlu13+MPv/8Njzx8P48+8kfuuvO25t+hLfffdzcPPnAfbe64jbvvuot7776bu9q04Xc3/5bf3PRr7mpzJ4//6TFu/cMfuPWWP6jPkGv+5qabuMnDQ73nuWf/rO7hoQcf4Pe/+63aL/f04AN/5JY//F69T37jO26/TX2Pe9q2VfullXPkevK+3/7mN/zutzer82WfvFdEtu+7/37ad3gWH68uJMf2Iy26A5++M5OLhWvgwlYclQtxlGer4sAyS0C8kpcDJ9lS15cf7r8/1Ld/yrHZUDIPyubiIQt9iwh0xmNTMR7LRMzLpmNTlMi2QOcqkwsLaLPUMk+y1JPaLs/+/lgLSNcD7Br7r6vpLgdOfkDRcDJb2XFyA/XNwI1I7keawZv+SXoGpiUqDacP1xEXG63MwoiwQGKiZRwWjCE6gpTkeNX6+vRTsR5xjCTEG0hMiFHnu8ducq7sF6eJuMEl8C0BbjEpY2Oi1XguLlaOhylHSoC/r3KmpKYkqfNkv0hKciLDhg4mNiZKfa641YOD/JVbPSjQj4jwUGIMker6YraGh4UqB40uNITE+HiSEkS7RijvqLxXzhdXvLjMvTzFU+pPpD5MjdHEMRIVGa6+e3RUhDom54aGBKCPCCEqMpSQYHHpexKmC1S/iXxf0ewS+pDvKZ8v31E+O9ZgUB7Jlzp3Rr6ruO3FTS9ue/kc+VzZJ++T+5FQgRyXexITVu5HXss5ouVlv4QQ3O+RsIKMjxMTYtGFat5gOebelvPlNwoK9Kdvv36E6gIxRPnTP9mPQQldOPDhXC4WrsZychWOEwtwlM9ExdSkNkrZVCifDmJ9iUIom6n6qfTja8ll1teN9OMffI8AJ/HBeRpwxmMy10zAk4UvslDrfhdmKUeKBp/MLZKnQ7M9KrD9n4GbBaJaW6Q1fK01ndu0dAP3fSvFayzF8xVwDWU7yJ0dw5C4niTIkkxRgQxMTSAlIY4IXagay6UmxzMgI0nJwP6pyjzMSJcMhhQFnqR4ickojhHJQBnQP7UFyKTE2GZzMl51Fom7iXdSwBPTUjJMBBC3DByQobJPZL+cI5koAmh0lF6BZ4iOIjUlmaGDByvJSEsjIS5OwRsfF6NMVoFzQP800tOSSU1JVCIPDumA8sAI8JfQRJAaa8p9i9krwMTHRauxp9yzPFDk+wQHiXMnkOiocGJj9ERFhRAdHaKC3hERgSorJD5OSkaEER8n9xav3iugCiTimZXOn5ykfX958IiH0/0gkoeRPKzktWTwaJ8TqX5H2S/7xAEl++X3FujlXt2/tbxPzpNrijNHvoNcU1r3++UcOV8eNLFxccQnxBAa3IeI4BdJN3SkdP8amk5uobpgPo4T81VdFPF6S46uspAUcBJw1uRaoLn3/ezAlS6A8gViUk5DzEoVoa+YpypEOctmI+ECGc+ZCqbSkDcRS8FUbEVZGnSttdxP0nBu0GZDuYi8vhI4N3QC3DWgOyFPpmwsRfNwntxAY9kOVs+IJEPfmSj/LqTGhJKWYGBgeipDBw5gQEYqSQkxJMTqiYuJICEuWnUA+QOKNpMOK+O2gQPSVCeRDiWdVRwn8od3dyj548sYTgCSlK7hw4Yo2EQLREWKFowlLTWZkSOGIdpN9glkAqKAJ5KemkpiXDzpKWkM6j+QAen9SYpPxBAZRbReT0xUFDFRkaQmJzJQgJN7iIsmJjqC6MgwovShJMZHE2sIRx8eRGiwrxLR3lH6ECWGKB0JcZFKmwcHeiMi+0S760J80esDiYoKIizMT0lMjE5BKPDFxkTg79ePSPkc+c3iDaqjC+QCrcAiGlEfIRpUwAshPCyQMJ1oTrEcwoiOEu0rD4bAllaOyz55j3yGtO7zQkP81PskHUyuJ9eRYyLyWkS25T0Crn9AAMkp4rnUER3WlejAxzj4t7k0ndyM7bRoOAFOxmai2cThJg/q5qGOW1Fc1uda97+fe3sOSB0ZAc50fAbmghlwajGcbE6NOTEfKuch4FmKxIs5iSYJHRzPxGRzGmEAACAASURBVF4salrMyjmaVLgBckP1Q+1PAU7GdNeArhk4W8kCXKc20lC6nZyp4aSFd8IQ2JWM+HBiIkIw6MNJiDEQG6UnNjqC1KQYMtISyEgTUy9GQSWt/BFF3E9W0XwCnFuzCZCyrT1xo5RpKHCJaSWaS4CS1wKYBMQFMtFUoqVE5Bx5rSQmhiEDh5CR0p+EmESiI6KJChfIDMTHxJIYF6fAi42OIiUxnoEZqfRPTyI+NpKwUH8FT1ioH2kpsfRPTyA6MoSIsAAS4vTEROvw9+2jtuNjI4g1hCmRY4nxkRiiQtGF+KCP8MdgEGeKLyEhXuj1AQpCATAyMojY2HDV6XWhAYSHCSTS+cNUK9sCRkxMGAJoeHiAgtVg0BEZGYxO56f2SzUz0aRyLTk3Pl6vtkNDfZFzAwL6IduyX17L+fJ+2ZZrRkeHqm3Z1/o68iCIio4mNjaacJ2nAi4tuj3H/rWEuvJc6ooX4DgxTwHncnu3K6UPtQbuh/rlz3ysbA6UL4aKhXhIaTSn7FDaba5WA7FyHgh0FXOVI8V0LFOVQjPmT8FaOE1F82U9bCrnqnWxNa3lhula7bW+0BVPlcs8Qm5Hihu86So0IZ9jL1sMX2+hrmgby6eEkaHvQlJ4H9LjwpWG65+aTFpyEolx4lFLJD0ljsjwIBLFBDLoSUmK0+ATLRYXjbj+BSqBS8wfMS3d26IN5Xj/jFSGDB6oQBLNJnC5RQAUwARAMSdF3GAmJcar1xmpqaSnpDfDZiAmMobk+CTSklNIiI0jKiJCabhofTix0RJI1hOuCyTQ3xPRYumpcaQkGjBEhhJnCCcjVdaTiyDQrx8hgd7qWHJCtDou3zVGNENEsDoWHupPQmwEulBJ3pZxnIzdfImN0REfJ+OwQCL1Qc0QB6IPD8YQFUZ0pE7dQ0RYELGGCBXjjIwIUoALxAK9W6L0wS3bArw8DAL8+iIPCXkgSOt+SEgr+/ThgWqfbIcEeROu82+5hrxfjrs/R2lXfQThESGEBPUiPrIH6Yb2HPhwFhcLc7DIcsiVc5uBE3MyUxXL5YQAJ3MppZU+eK2++f+wT/ElidUL8LAUTMNRIg4RNxTuGxAq57aIs1ScI7M02Nw3LtC5wXPvu2brvvYVkF2l4n/A4yN2eOV8zEULsVasp6lsN6umRZMW3pnEsD4kRQWTFKMnKU7cyrEkxGlAJcZFkhQfRULM9xIfE4WS2CjiY6MUZAKdwKbGDzGRxMZGkZAQQ7IyM5MUVDKGE9AEKNFg7tctmixOzLFYBDQBUEAUMzMtJYUIXRhxhliSE5JITkgkNSmZ/mliPiaTGB9DXEwUUXrp5OKCD1KdXjScmJHS+fVhQUSGhRAVHopBH0aMOEei9cQbIpXIsetKeLACSWD6YQlBH349kfcG/UISTFhYCBERQehD+5AQ2Y2EsKc49PFcGk9uoKliCdbK2TgqpuEU2NxLcZXL/E5JtherTPqeu2//PK2bD2nVZ7n5kEK+pxZqcTgp5Hn5mMr9JGgGrkxzZ7ovdtVNt1z0h76EXPPHYPuR45L8WbEQc9EirBUyhnMD1+Uy4ESzSaeXaskCk4xrBLjEGE2uAq8ZOPe4LS4umvgEgyo0JBWWk8WZkJKoTEPRbiJu4ES7uaET01KOCYgKstRkBZ3AGGOQ8Vi0ii2lJCUrz2NyUqIa+4lzRD5bnAwyjhSTTp7oYsbFGCLUOCcyIkQDMTQIvS64BbzoCF0LfBGhQfysogsk4hcS0fbiLNJHBKAP7U28/iUSwp7k0MdzFHDGyqVYKmdjbwbOVSEhJJFMnBXazJefGzhRWgq0VjyIkpL9TjX5dAbOQqnaJdSfEE3m7vDXBk5pMrnYFU+J64J42Xn/PeAsxYtbgFuZFUWK7kXiQ3uRGBlEoiGChFhxeMhYK1oBFx+r/0nAiXYTLRcvpmZizOWSIOamzKXTru0GTjSZhAhkxoDkVgp8ApjsF5Ft2SfHBDDxUqaIuZsQ3zIOFIeMjCnFIydOipBgP0JD/JUb3+1AELNSFxJAeEhgi7jhEgBFWh/7ebZlvYZfRsLUQyiIiHB/IkJ6ERfRhXjdE1cANwe7OE0qMjXYpBJd+VRtLqeEBn5mk9JWNF0D7sQ8NdQS2GT4ZT4+FcuxTKx5k9RSax5qHPZTgHOP11pB54ZNLn4liJe/FuD+E+gk01rTcAKcrXKj0nACXHJoJ2KDe5CgDyQhOlwBJx1dgIuLiUSAE7MywaCJ2wSTNk5EzMcYMRXDlZYRUzIuPlqJZIAYYvRER+sVOG5T0Q1e65ibgNda2wmgovHc57Z2psg+EdHCEoOSMaOMF+UpHhToQ3CQxMNkbCVmVKBynAhwYcG/pPgTFvLLiC7EX3lLw8XDGtSD2PDOxIU+zlcfzf5ew1W4gZuqNJvApmUnyRSznx84xYCwcVJ8H3PUGgzi+xBRwOVPxlGQhYemucQc/BEN918Bzg3eDbTNwFmlHHczcDlTI0kM7oghsFsLcPExMhaTGFGUcj6okECs/keBkw6vYkoxkVcBFxWluf8FMAFH4BKo3a8FNDdsos0k4C0mppwnJqa8x+21FAi18wVivbpPzQ2vU+akACcTQ5XLXS9ufH8VAggLDbwKOF2QP275+WH8ZWATyAU4LTThiy6wGwbdC8QE/4mDf5ulgDOdWIalBTgZswlsIjKnU6aYuYdNPzTs+bFjYt39gLgdjeLdL52F+EZMx6aq1lE0Q6tpUpqtASfxresCJ4s7iPOklW3aWnu5tVzrfT/LdqmEIhYhwNlPbFIabkWmnoSgDkT5v0R8RADxUeKY0DJBJHtD4ljidBCPXrw4GKL1ytEgzgYRt0dQxk/uQKyM4cSklERZaUXbiTtaAsCtwRGzUhwjbtNRMjTEtHSP5dyaTUATkdduz6aAJiJBX3cwWcZsMn4LDPBSwLV2tYsXTzqdGyo3ZP+vbbAful9IQpWZHaA8raGBXYkO7Ygh6FHlpWw8sRFT5XIsFXOxV8xQYza3dhNnicCmFgH5j03KH4BNQDy5QHn1HSViSk5XoEkrPhJnSbZmoZXNxsNVLkHumbgqsptlFrJPlkhylUuYQILhc3HKxD7xUlbMvkzc8bgr9/83XyuAxfNzDeDiA9uj9+1MXLg/cZE6ldqlmXcSo/rpwAl0Ylq2Bs4NXYIy+wQa0Z4SQpA4XLyaCiSaVPZJypVkREjKk8AkwMt+5byJ0zSuZHGIyH45LmM2Ga+5nSSi1US7yWo9buB0Ol9Cgr0ICfIhNND3KtFJRkmQ31X7r3XuDe8L8iX0F5SQIIkdytjWi5CAl4gK6UB04CMKuIbKDc3AzcNeIXBJdQLRctKKdstGJln/R/2xhQdh4trSEkJrztayFs1AViVS+cmF07Edz8JROAMPAeYq4BRUlwMnmSdy461v3g2bOF3+oy90BcRXXcvtgKlchK10aYuGWz4lgriA54nwefEy4DSzTY9BxmXRovXCf1TDyRhOtJxBwIvTxnFub6VyosSLhtLOkQC5BMYFULeGEqeLHJdgumRnyHhMzFRxxEgsT44rk9WgV04See0es4kZKQ4SBVyQF0FBnghoEREB6HQ+CrigAE+CA7yUSOxNJFQgbBb3sZ+v9SY44JeRoADvFuCC/bsQGdy+FXCi4VZgqRDgpI/K1DGBTZwYM1XyhiRwXNWnfqzPXXXczYMooavFXjIL0/FpNBydovKSHaWitCSOnY0xP5OGr8ZjPDoFD5nS4KyQJYDcMhtX5RxclXNxVcpa2vObW9n3n4hc78akJcB+YnELcA2lu1g2ObwFuBidL7H6UKXhWgMn6U2xAp1olqgIYltJTFSE0oIKNIFNcveiwomK1iRa3PIxeiWJCQaSkyRXUUxECQdI0Di0xX0v+xLiRXNFEBGuaS4xEcVUjIuNVCljAp/6DDWpVXOQBPhLsq8kGPsprSagiYSG+qiMkKAgSbLuiwacQPdLiAb6Lwmcn18/goP6IcBFBLYj0v8hvvpoDsZTWxRw1soFOCoFrOYUwea4Wwsc/9vee8fHdZ133kOQBHsDWAGi9947ZgYdIAk2SZaT3bxvdt+83k2y2fV6N5t1UyFVSFGU2AsAAgTYqS5LsmPHsmwrduxsbKuyAJg+AClRhUSf+tvP77lzgSGJAUUwMkg7f/w+5/a5M3O+93nOc55z7i3qruM83dEtgOkJEes62WAJ4+NwMd2RoHGSIsOTUnLdeWELHITtg4cwcu4ROYb7Ydoux3D/yAcPge244Xe+BQ0/xMsbNTyqiMv3EHAP1qaKhSNwTO36ii86KO0kWiTmE97X+IWAo4VSgVNh+wo7n796n8DGJF+mOzHznrAROsJE0LiPkkRhZmmsbxBXUT1OzVFUk3oZ/q+vq5Q2G9ttnE1rDV1Huk1rua5Hfb0WtbWc3qEUdTXlqK/RTqF0qK/RT4nqavRQgWuoycGGupRxgNsGt1glxiPUIAmtEptENByEZWKDId1j9Na6twp8AiAj+ISQmVdMfTRtl9LT9biANvj+d9H3zrcw8B5fp8Yutiev2z/84cNwfPgwRt77NgZ+97+hUT5k6z0L3FdqUrChMhsPMHXJB5wSMVQSf+/fvE6Ae3DzBlDM0FD1ANtb920QV5Cw3QicCpt0Ezy4WawV21uESc2yV2GjZSNsBJDLBI2WjseyJJw8lvvZbqup1qGuVi/A1dSUo65Oi7o6lopqa0tRU1MiL3+sripGbXUZ6qrLp1Ba1PGep0C11ToBrqG+HPXV2Vhfm4RNNavw67/f4rNwu+DgeLiurTJmcqyTm64fXxZJL21i4GDZJpaMkClen2J4aN1E/sCZtoPA0aL1v/ttfP6bv5NSgPMBSatHGKmRDxW3cujdb0PjJcHmx+ExPOrTFnhIePdj8DDE2f2Er9wKj2GSuu56vObtiT+WBE7GcSkfqE5Goz5TgHuAFXszXUPCsUFSpZhNzxzErzAdatN6ycxgahR1P8VsfD9t5vL9G0ALR+AIG9tyCmhK3xgz35nMS6lZ8MxqZ9b8Vzk64UEGTehycpavOnEXCR2BI5R0I3XaIsnQr6/Xo7KyGDU1ZaipIWRjoFVVFUJUWYiaqlLUTpnKUFtVjtoq7ZSopkqL6upy1NeVoa4qE401idhYvVKCJopLuQtOw1NSr5RhYxyryTrzBNDJHMZtAtxE9Vfe0GpiO/BRkddIy0YutsLVuQXD5x6B4wK5oAXbDq9hG5wXH8PQh4+g/73vou9dvkKZb3t9DK7OxzFyfousc5sC3LfAvGUNL3oTcALWY/AY/ICbLGzqeaPwEuDbE9uS/sC5jS1gG+7p/7Ue91clYa02HfevrcT9tDybaKk2KQMkN3Jc3Frcv2ntLYFTQ/SbGKpn8q6v/aYGUNatY1b9Gnz1qxtlxuI//dPNkhHPDHdq06YGyXBnljyPYcY8t7MfjW00dmSr7ibnhywvK4Bi2XTQ6wsFuOpqn0WrLlZA8wFXXVWEmqqSKQSOsE8lcOWoqipDXW0JairSsbYqHusrl/uAa8WwYc8YcGr3VRfrDMegPQVv13blIa/WxXFKFS4CJrDxraqmx+HsfASDH34Hgx88hOFzjwpMhI0ifASMcA28/5BAR/AGP3hYtrs5qRH3n3sU/b/7JpznHoXGQ5LNj8NteNSnLXAbtsJteEwZ8sBxRhz6INu4fbJ6HO5uzj1x+5Lgja9bwHVxJ/yBu68yEWvK03DfmgoB7j5fpzNHI2/moEmO4eKYLeYdbmwE8w9V3ccwvq8vjHmM1MZN68Ap6wgdLR2DJrR099/fKBARJkJFwJgFQqg43ITr/tAROA474TEckkJrp/S11aKyohQ6XSGqq2nVygU4BbYSVFUVCWyVlQVSVlcXoaa6GHQra2gJp0QlqKksQ01l+ZSourIMlZUlqK0pRrU+DWsq49BYsQz/9P1HZAAqgXMZdsDL9hMfzlQX+8Vo3Z4GuncIcBPVXRdzMbu3QOHhCXhp7bq3YOj8d3HtvW9i5MJWOC7SAjI4s03EZW4bufAYBj54BFff+Q4+++230PfeQ3DSjTU+JcfRMvb99psyDE7Dm/CaCNe9B9yOv23E5ooENJSlYnODHpuZ9LtxveQusk9MyXxvEODu37AOFLPtVW3eQCAV0PyBI3Q3gvfggwpoBIyWjiCpgBEsFUBu51guQklxmWO96GLSyrHdxspDEbiqqhJUVNB1pFUrRmVlISoq8kUqdASuqqII1VOmYlRXlKK6omxKVFVRKr9XTXURqnSpaKiIxTr9UvzyjYf9gHtarI4MpGYksWsb0MUxaF8MOGcX6z9Z4ADnx8B1wjbw4bfR/8G34ZYoqAKaP3AEixr88FEB7dq730X/+w8LhKPHdT6O/t99C8PvPwyNm5EbI93HLT6xncb1G9pwsm2SbbjrrnV77iTdT+mauMhpHZ6C8+IzcBmPoO/CCTwlwMWjrjQZm9fosLmxTrFqMlWeErTgkBKOEfuiwHHMlSoVOlq8++5T3EYVMsKkWrC1HOC5qQEbNtTKaGqOruZ0BhxVzZIDPDkYlOPCqqtKRLVss1WXorKC044XoqqyCJUVBajQ50OvyxVV6PNQVVkAupTcXqkrmEIVoVJ3JypGpW5yquB5lSVQgavXx2Cdfhl++cYj6DcewbBhL1wGFThaOYrA7QC6dgLdT0szRvHaaFxulpPBEtZTdgF0b8XQ+YfQ9/63BLbBcw+NAker5m/lPIbtYskInL+Gzm0R6Aijp3sbZKD3B48yaPIEKElNYXrKqBi18Zf/vsks+19rEsv8EQ1PY+TCs3CZ2tDXeRJP/s+12KCPQYM2GRvqS7GJI4h91onQbOJ0AJwPktBxLNkNY8Y2rVfGfqmjv1mqsN1YMujB6QJGtbFerBwtmmLtFMgIGEdTczqDBx/k7MeNePAr7EaoQ011CcpKs6DT5qKqkqAVQK/LE5gIlCKu36xKAjeV0t0p8IWo1E1OFbpClJfz98lDRXkK6vWxaKxYgX/6/qMYMLViyLAXDsMOgUIezl1Pwtu1DZ6uHfB07RS5u7f7oKFL+CQ8bIcZtyszHZh3yDpnPeA2uo9979FS0TV8HLA8La4h4YJpB2B+WpGJ5/G622Sd7iXdSbqWtHJc5z6vYTv633sYwx8+xm4BVmQCNAkIfl/n8IvySzFJ9cIuuM3tuNZ5Ek/8zzVo1EWhTpuI9fXF2MTpAjat80GzBps2Ezq6f/9awBE6H3jXAVcnWSGbN9eD2rixFps2cUqDBtF9m5l8q0NVRT60ZVnQa3NkuYKWTJsDteTyH6ZyoS/Pm7R05fkoK/X9TqVJqNPFYK1uGX7xBpOXj2Cwe48CnOFJCWQwmOEhYF2cAv0ZuAmdAKm4hIREtUwCECHywUNIaJ1UC6XC5H8O22b+5/mfy7YcoWM5fH6ruJsK7PzMp+9t4B7/Hw1Yp41ETVn8TcCtpzXatAYbxdWr/1eycIGBoztJy0bY1q9nWlYN7ruP84Zw9iy9uIaESVeePQoY4aMIHLf/4SoHurLcSUtblofSEt/vU5KImvJorNEuxT++/gj6DC1fALhn4DXuhNe44ybB9DQo7nN2PonBD7eIRi7QOtFdJIzKfvV8j4GWUNkO807A8gwcF58Q8byhc1uvuw6vC+suwPwsgaPloHVjD/pdKrFw28XCOS7uHrVwj32jHmvLI1BVEovGuiJsbKyWLJD1G9agcX09NmwkdGxb1SsjpX2DNdVBmxsb12DjenZOj4nnjid2YI9JmUiHwRBFtdJ+I2wbNnBWLAW4zZsJH7NJSlFWmjkKmwpYeWnmKHAqfH+YZTa0pVTOpFRemjMKnLY4AdVlUWgoDxXgaOHoUvLNuB6jEq5Xwvbsl2Pb7VmR17ATMF0vr5EgPS3Wz3HxSQyffxyDH27FwAe0cI/B2blN9t14nrqunkvryeN5DVfXdjmP67wOr8fr8lhX11NMXuZMXYSOFfpu1VMyUgBGPkl2w2PpEJdy63+vQ0NpOCqKorGuthAb1lWJy9e4vgHrGusEuA0cwMlJaTg1wZcIHBONb7RwtG5r6UpWFqC4KE2Ao1tJ4AgWgVMt3h8maIoFV75bNrRlk1N5WY64lOIhlCQKcLRwdCnZhhsx7Z80cJwinZCokI1cYMRxK/rff1S2ETqYn1FgZWl5VpH5metAVQFVISR8Krwsed2RC08SOLaPCNpTd7d4j8Zn4Ozccx1wdcWroCuIxNqaAqxfWylWiDP0Erj1G+qxfgMz7muxcV09Nt0w7wcn7KGYta+KsI4nZpqMqU46tNmprYjTxCnA+Vu4jRurUVdXCm15NooKUwWuSn2elGUlGaPAqfARwH/Tzb8BA03lZUp719/CEbhBcxucloNwmXbCK2lVqpfGfrmd8Bp2+USXku6jYuW4TNgIFGEgcCy5TovU994juPbuw6PWST1PhU+xWNtHrSIB4/W4Xb22Ci+vzWve88Bt+XotaotWQpsfcRNwfAVU43pCVycdzwpw9QKeOhkOJ6dRJqgZg4mu6Hgag43H3gwc23CEjcNp1q2rlPkf6U4yNYuw0cIRLFq0kqI0FBemQoWO61z+N43/G5SWZI66lOVF8agsiUB9WYi4lATOYT5wS+A83YRvpzy0+eCmu+nqfAoj55/E0IePyzKDLOq2wQ8ew8D7WzF8jtkiTOXaOXoO1x0Xtom4TCnuK7smlM9gyWvx2n3vPSrAOS5uu4csHC2wz8J5rcfEpVSBK89bLcA1ruGLB/k6qDp55xqBa+QUBeuqsZGzBK+rw0aKMwLT5fRJABKIePz4Wi8zDatg3gwcJ1SVsWu+bP/GxkqsW6eHXp+HvNxEAY7Wi1AV5ieLSovTR9cJ3b9p/N+guCgdJcWKC15aEAt9UThqSxbj5997SKKUdClvZeHcXWzPKUAQBsJFUAgEwYJlt8DCbYSQIlQEjseoAHGdxxNIHsNrwvSsIuMzo8BxG/fx+L53H5U2nmLhDDuAe0HMHLDsHm3DDRrP4pH/Wo2K3FBpw9XosvDA5gZl1itO57ZpLeobKn0uZQ3Wr63GhjXVUnKZ4hTgFIFUxXe33awaMJeSWf6KuD52jjJ2jYBVjlq4desqUF9fBp0uF4UFKSgpTgcB++NVGkqLJyf+dgSODyR9aRLK8lagsmA+/vmHj0uU0mU9JN0C4lKa2U+2AzAynUsJmtCtVC0ctxEqgkBxWaySmVFEn4zPiHXi/v73tuDaO48INASHsI2C5gNMoOO5NwDH6xJankMXdeCDrYxSPi0dynd9GQA4fU6IAFdVnoH7N9XLjFdrOG3BhgbU1VfIm0aZCXJnwBGuLwYcoaPWrtWjtrYE5eXZ/wacPGgIW+qkROCKizLEDdeVJI4Cx3cLsFvgiwFH60NXkq7eDoyc3yai5YOR1oguJ4Mju0Rc5nHD557EwPt0Lx/D4AePyzq38xw51ncul3mOXMO3j8vOi4pbySDMoNLxvVPC7exUvnv1tJKI6mfhBgxn8MjfVIHA6QujUFmWjs0bamVQZwMnnWmsQ02tTt4yysGdjWuqsL6hSkouU+t8IpCq1qytUs65oVy7lnOL1PjEOTbGzlm7lpApI7Q5eJTANTRopf1WWpopwEk7jm25P1olo7gwaVIqKkwR4IoKUsCgSWnuMrFwtwucp5vAKR3hrk624ehiEpzd0jmuLsvriw3Pyv7hc7RQj2PowyfBZccFdjcQzN2AeQ9gpPUkaIRWuT63yX7jLrmu48J2X/fAE7RwdzNofvfGzG8fcMw0IXAP/5dK6LKX3BI4TsqzjjNf0eLJslKubeC7zji6ekwNaypwszgaW5kvknNGcriNMkKb25WR2gSOo7QpQldXp7iTRUVpKGCbrSAFrDB/nEpGUUESigoSJ6XCAv5+adLuZdCkJGcpKvLnydtzaOEYpWRqV2CXcrevP04BQgVjFDCCQ4AoH0DOi7RuCmz979G6sS3Hth0zWBjp3A1Y9krpD5tck8D5xHVa0eHz7Bhn0OQeBa6/+7QAp81aLFHKGy0cI421dXppjxEKgtboBxvXAwK3tgIN/hIgbw0c5x+hCBxHa9O65eUlCXD5LP9olYiCvAQU5MVPSvl5iSjIT5Xfr6wwDsXZodDnzcU//WArrnU3fyHglHbcGHCjsKmgmRg0GbNqhEsVwSN0Kni0cqPn+2C9DmI/2BTwnpU39yod3/cwcA/9dQXKMxcFBI4uJQMgMldIvR7r6vm2mTGtqVcmplFBkQl71uhQf6Ma9GhoqJRZkdWJWmk1x6QXl5JzkFC0chzXVlCQguzseBA2Rirz/2iVgPzceOTnxk1KebkJyMtNlt+PUcqirJBJAyd5lXQJ/dw+wkKLRpAI103uo3GXuJX+0PF4gc53HV7D/5rcN7ZtF9wck6fkUvq5bXczfN18TZUSpaRL2dd1Ct/9Kz3KMhaC3QL6klRJ7eL0BXX1VdItUF2jRcOaStQTrDod1tZpscZPDZwNyweJCktdgxY3qV6H+voK36Q/vol/6jnJjyq+96xqdD4SAsdxbbm5icjMjBXgcrLjkftHqzjkZsciNztmUsrJjhPg8nISUJIfI8Dpcufgl9/f8oUtHIx0K32JzCocfu6jChldRsJEMP2tGGHkMSp0BJNtQF6Tx/kfS3dT/SzZbt7ty+XcSZfyGdz94pgmhnv3YuTiHrjNHejrOo3v/FUFyjIWoTw3ArriVEntqqnWorauEg1rqlFZVSZQcIIeAqeqoU6HUQlMBGpMdfU6+Ev2cUbk66RHQ71uVI3rCKIy78aaBi0qK/KRm5OAjPRoH3CsdIH0RWEMdP7dvz0nOwY5OX7i+i0AzMuOASWw5iQgJzsWxflRKMxcDF3ubAHuqqEFDgu7BXbCw4RiGTrDrBJ2VNOFZPSQbbQ9oxBwu9rGIliqZWMp++hmqu06I89/Vo4niGzLqa4l4VShk+vxHF+77kbgYGKgJllmpQAAIABJREFU5Rlo1A8GLzqV8vm9o/dz47p5L7xde+DlK2aNx/HpuZN49L/VIyd+NvQFsagozUBNZYm8LZRWrqaGs2ARCL4svhz1tdox1XGbImW2LB47kXSor71RfterVUDjAEkOw1m3VouS4jRkZbJSxSE7KwY5WdHIyYryicsUt6uKRU6Wv+KQk+Uv9bh7r8zOikZW9s3Kzo4G98lvkRmFnMwo5GZcr7yMKORQAmskCnJXoTB7IQrSNPjFDx6F89IpeHpa4TDuhtfMQAZh2QVXF9MAn4VL6sx+uGnhTLtEbnmB404MXdiO/g+fwNX3toLbAsnDML8v4kjICNy1d7ZIqQZRVCsXqPQYn4Hb6AdcoAN/X9sDgibgMYK0D66Lu+HqbobDcAKfnz+Dh/+mDjnxc1CWGw19iQIcrRCnMZAJegSEctTVlglgBHAyUmFrqNVBkRYNtVT5mOrKUFtdhMa1Wnnxe0lRKrIyWJkIUQyyMiKQlbl6TFwXRSIrg4qS43mOIp6jitu4Xz323iozMyORkRmJ9KwxcZ3bM33fibARLAJHyFTlp3NbJLKyIpCRtQo52UuRnzUPheka/Pz1hzDSewoOawschr3wmBQL42WYv3s3nJ1sO+2Dx3gALsMuuAgVoTPvltLRvRPDnTsweGG77OP+8UQQWT9ptfytHLsLVKt4K04IG68zauFudcKXvf+WwBn3wnlhFxydhzHSfQwDhhfwnb+qFuCKMsOvA44viB8FrrYcdTWc8akctbWcWPX2xdfnUmMTsXJSVqpsVA11ZaipKhTY1jaUobgwBZnpUcjOjEF2ZjQy01cjMyP8Bq1WtqdHIDM9Uo7nOYp4jipu434ed+8pIyMC6RkRSMscE9e5PcP3fbIzIpGdHomc9Ejk+ikvjdsikJm5GmkZK5CZsQR5mXNRkhWEH7/0TQFu2NwMp3GfAOc174ECHK0cwdsHt2H/KHCEzWvZMyoVvvFAU7cJcL4uA7qgtGpqm48uJevurfhQrafGv/9h4ko/1rfwpRznF54dvafRbexg3CMWztFJf/04HNZX8b/+Qou8xHkoSF91A3B6cCo6gaSWsJRD5hCRuR85U9btqZbnXzcJKydlpUpHpQJH2BrqSlCYn4T0VFoxxTplpIcjIz3sZqWFIyNtNTLSIvwUiYy0KD9xnft53L2n9PTVSEtfjdQMRVymuD3d932y0iOQlRaBbD/lpEUgJ1XZlpkZgdT0FUhPW4S8jLkoz52J105+HY7eM1CBU9zG3fDQGhkVK+cx7IfbsE9cStW6EThY94pU+LgvkOiKqm06gkXIaNlo7UbbfDc2gfzWvT5X1mPaDQ3o95J6pqZModT7GLeURuxeeLv3wtXdBKfxBNw9r+Nv/l0+8pPmIy91BXTF6aiuKEZ9bQVqaypQzUlLqxXLxFmL7ww4uov+sx6PD1x1ZQHW1HNa8iLk5yYgNZkwEZbVPtBWTQCcP3Q8x1/3Lmz87ipwKmhq6Q9cRmo4RCnhyPQpKyUcVAbXs6KQlrEK6amLkZcxD9q8WTjd9P9jpOc0Rixs1ytQuRiO9wHnNe6Fh7AZ9sFr3iuuJC2avwJB5r9dAY7twz3CCtt0LqaIMR2MMNJi3oIdpf1I4BhVoRhhmUqp9zFeqd6XaT88pmY4TccFuP+wIVksXG7K8uuAq6nmlAa0SjrU1egEFs6Qpc79eLslz1VmPuYMxJQ6CzInZ1VEC0fgaN1qqwslIpmcyAoSgfTUcKSnrUJ62kqfuOxTahjSReHKcamrkT4qnktxm7r/3izT0sIxnka/V0oY0lUlhyHDT9yekRmF9Az+DiHISZuLspxgHHrqAQzZ2IZrhdOouI1Ohv4Zpmd7zrQPXiMtHOv4PngthG6PyG3aDZeR7TpF6vbxSnFT1QikjxUFap/luwU/yvkEfQ8t3D6ITExTmUKp9zFuqaTQwLIfXnMLRgztGLG8jPsrw5AdNwvZSUvHAY4WTg++CILWidPTqXM/3m4pU9txmrbKUp+4TI1NzKoCV19bjJqqAgmWJCWsRFrKaqSlhCEtdSXSUpcjLXXFDeIxq3wKU45NCUeaiOdSXFf33btlakoY/OX/nVKTV4FKU5W0Cuk+pSaHIT0jSnFDU0ORmTwHhelB2P6tOvSZjmPE0gqXiYGR3XB07RwDzrxfgHN10308AK9lHzxi6fbCbdojUtcnKmkd6a4KH2r9NO31QU1jtW9Cdgicx6JIQ/KFfobdp1DqfYxbmvcq2dkCXDOGutowaHwea4uXICN6BrISQwW4Kn2xAFZTXYGqSh1qqmjhKlBTdafAFaP6CwDH6RPoTlZX5kuwhMDRrWTFSklehpTkpTeI26jlSEla4dNKpCRRq26Quv0Ps7wJOBU8ATEMqWmRSEuPQFrKUqQnzEZukgaP/HcdPu/mw5fAHYSze5cA52I/G42HeT/AsXLdjF7uvw44AkYAYd0v+iLAkQ85ntaS4Jr2SPlF+CFwbsteaFTIePLdKkadnBe2AVdace39nfBYT8BhfRl/UheFVfM1KMwIQ1rCKokiVldqUVxUgDUNdVhTXwNtaRHqa+liFkn2BzNAbldyrr4IBFoRl6nCUdXxTTeVBQJchS5H2mAEji6hVKaU5UhNWeqnZUhNobh9eQDo/nDgSk1aifGkPFxWIjmRDxzl+47CRxczNRxpqasRERGCnJwEpCSGIjVuFlYv0aBj73/ElQut8PaegMdyWKAaayLRc9sPmA+IvOYx6zYeXKrFG6+8Uy54TZeZ2guN+uHjfdDdso3RHQ7uQ89BDJx7Fm7LMThtr+BP66MQHapBWuwipCeEoY6WrEKH4qJC1NfVoq66CmXFhdKWU4ArAKcPv13JpK23AK62ilbwZuDoErIiKXCFIjWFUsEbg+5mS3ejxbu34SNsaYmKUhPH4LsRMsKW4lNy0kooCkNU1DKkpkYhM20VkmOCEb5YgzdO/R2GbGcxbGqD23wYhIru22gsQppI++BlW+4OgPvX4MAPOJK/D24T/dq7UwKchd0Sz8LRtRcuczvcPa/iG39eiJhlGsSvno3MpNWokbnv9SgtLkFNVTWq9HqUFhWCVo/Tiatz9t9uyRmSK28BXE1lkUzuSpdSr80WC5cYv0JcSnl6izsZgpRkKtRPipuZnLQUipYhOcmnxOVIFq0QC8Dr3KtKTVgBf6UkrEAKrZpPansuJWUVkpNXIilphSgxcTkSElciNi4McXGrkJW+GolRwVg6R4N3f7Yf+OR1XLvYBLe5CV622QQ4NTXLFzgxcbtSz1nXx9OXXfcJnNO8DxqvhY3JA/CY99+1Un5EJoly0s1DGO4+Au+l76Fj139CSPAYcBVlfOGFHtqyclRVVKJCq0NZMV+EUY4KfYHML8I5Rm5XMgW5TNOtzq2vTtk9Ntd/Nd8RoM+TCKU/cClJYUhKWI7kpFAkJy25QSFITqJCkZQYgqRElkuvV8IyJImWy3V4rXtNyQnLkRK/HKk+cZlKpvjbcL/PmhG0xKQVSBDQCNtyxCesQHxCBGJiViIxbiliw6ZjwTQNLp1/HrjyOq5eOAyX6TA8Jl/n92iInknDe+Ex0sJNXf12m/fBZaH2Q+MhbJYDcJv337UicJwFF7bdQG8zrp0/AKftJbz300OYr9EgcnkQkmOWoygvC5U6LSr1FSJ9uRba0tIx4CpyoZ+EZE77WwDHef853yS7BAgc224JcbRQq5AYvxSJCYuRmLjQp0VITKAWjyohfjES4pcgIT7kZsWFIkG0FAlx954ISXLsUiTHKGVS7FKoSoxdKhDxe8XzuyUsQ3zCMgW0pOWIT1qOhKQwxCdEIiY6DCuXzkLEMg0iQzS4an4dQ9bnMdB95PcC3KQZsez3AXdAAc5rPSjQqfDdbSX7T2Rq6d59PuD2g5MIfdL5KuJWaBAyV4PIFfORmhiLsmK6dpWo0OmhKyuHvpzWrlxemqHT52AykrfZaAtQoS30ictU/ph0efJeAHYJ+APHwEl8LCFahISEBWOKX6hs4/b4RYiPoxb7tATxcTcoNgTxsaH3pBJiQ5EUE4rkaKXkMpXoE/fHxYQgNiYEcXGhiItfirjEZSICF5+4CvEJUYiMWIklC6Zh6XwN/mxTlgDXZzyNETYx6FKK68jopJLMoWSHsA23XzSRF6d6eoHKO2LCegBu6wG4rAeh8VoPgfJYCN3dKQnf2nYp87NbD8JhOoIh81l8Zvge/vYv12BukAZL5mqweuVS5OdkC3DaMi3KS8rErazQlkGnzYNWlz0p6eQlGxMDp9cq7wfwBy4+lu7gSsTFEJ6FiI+fP6a4BYgf1ULExapahLhYavH1ilkilZIV815TfEwIEqNDkBSllFymEnzifj5M4qi4UMTGhSImPhSxCUsVxdOljMLS0IVYungG5k3X4O9f2InPjK9hxP7iFwTuADymwPKaDyKg7pALt/UgXGPAHcT1Fo7QEUDqMNyWJinHtqn7fn+l17IfuLQfzq6n4OTYpssn4e55CR+ffx4/+95eLAjSYM40DZYtmo3s9BRU6nQoKylFSVEJ9Fod9NpS8A0sBGdM2dBp+eqoLOh0VKZPvnUt92dDK2UO9Dq+t42vl6K4TOWNirMrU9VVBXJeWmoE4mKXISF+BWJpncSCXQ+ZQEgQ4wgYgVNhCwQcobv3FB+zBInRS5AUrZSJ0YtBJVAxixEfQ9c6FPHxIaLY+CWIiV+C6LjFiIpdhOgYtm8jsGjedKxeHoy5Gg1w7bf43PAy8MlrGDYeuaFbwDcuTfreDsLLumw+OKF4zJcnMrVPvEiNuGvWvfCI9onpc1sPCWhuSwtc7FS0KF9oqqAjcB5OtvlxMz76l61A3ysY6D6BK+fOYMj+FipzlyNkpgYrFwVhZchcZKYloq62GunpaaiqroZOV47i/GxUlBVgTXU5GjkYtaYEVboc6MszoC9PR4U2HXptOrRl6Sgvy0BZaQbK+Xab8hxotbnQ6nLG0ZjFLNdmifWky1paloHMrBjExi1DDNsoSSsQHb0QMdELAioqch6iIufftYqOWoCJdJNF9rPQBCopZjGSWUYvRGL0AiTGLEB89DxRXMw8xMXOQ1j4dCQkLsKyFRosWzUN8clLEBEzFykpKzB7ugazNRpELNHgW3/diOGeN/Hp+RPAwBsYvMikDfa7KWPhOC5OCVQcgNNyGE7zYbjNByfURHWbIMLcdAc6qNybaQ9dyj2gPCICtx8KcM1wW47AZWkT6Dxi6X5/Vu36H+AAvMzu/rgFgxd3wWttR9/Fo+g3PA989gu8+cLTWKDRIGb5DMzSaDB/tgaNa2uRm5uNtY1rkZOTjYaaStRoS1BWkIWCrCQUZieirJDWMBO1VTmo0KZBr0tDhT4Tel029IRRlwctXVFxRwncGGDjLRM2BmXKyjMFOMIWEbkYMWLh6FaqbbSby9iYhbibdb319bfEynJ01HwEUkzkPESsCkZUWDCiw4MRGzEbcVFzkBg3H4nxCyWAFBszDxGRs7B8xTQUFschMnoeVq2ejfikpQgLm40FwRokhs9GyAwNrpl/givnnwM+fg1XP6T30+rrDnhWXgklwFn2w8mR4JZmkct86M6BMzUDk9JBGe3N2Zg1kl/mZ+E8VkYtCVYTPOYWuM2t8Jin1sKxwerkaHSm4VxqhcvcAq+dWeLP48r5s8Bnv8J/+TMd5mlo5TSYqdFg1fJFyMxIRXFxEbTlZSgvLoC2KBe64hxUluejrrIQNRV5KC9NRUF+LEpKklBamozy8jSUazNBi1XG9wCU5qCkJAulJRkoLUkPKI7wplXUlvPYdGRmRCM6KgRhq+YjInw+olbPQfTqWQEVGTYTd7OiwoMxkWIiZiOgImcjJmoOYqJYqpqD6Ki5iI6aJ6BGRS0A+9wioxZj8ZLpiI1djvT0GCxaNBPTp2mwdIFG/t/dW78GDL+LTzvPwmE9g4FOuoxsf7HDezzgWuA0t2BqgWO2y06RdAu46V9a9/silfQ3D8NjVoAT2FjBrU3wWg9Pkehf78NI17OAvQluSzPw2Ytw2c+g+1f7MGj/Prp+cxpJ4RqELdFg9jQNZgVpEBsZhuWhIdKmEwunL4WuJA/lnKe+OBNaeT9bBsrL01GuzRBpdYprqNXnQavPh1ZfCJ2O7TK+vSU7oLRlmbKvqiIPlfpcFBUkg31wsdGhiItegrioeYiPmhNQcZGzcTdronvnvpjVwQEVHRGMmNi5iKZi5iIqei4iIudg9eo5CA+fi/BwWsdQhIctRlJCBFYuX4y4mNUI0mgQPH0a5gUrbfSa4jBg8F10/0s7Ruwvo6+rDbh0DC4jRwOw3eabYoGjAtjVZWmS5hCbREosIrCHNlHdhrUJYJ0ztwTWRJaP6WUW9iE/DY3bZ2rVCKU0HCVNphleM9WilNZmH3QE7/etw8BHrfLDDnXuUp5W9lY4bO0Ysp3ENfNZ9NnfwIsd38ayeYqvH7lyHkIXzsacGdMRGxmJorwclBbmQluSD21pHsqKs1FSmAG+KKKYU2mXpKOwOB0FRenIL0xHflEmCoqzUVSSh9KyfJQWZaGsKGNCEWJdabaoICcJibErEbFqEVavnIfIsFmICptxzyo6fCYmq8jVM7EifDpWrJ6JlRGzEBYxB+GR8xERvRiR0SGSthUduQJx0eGYPzsYYcuWY9GceZihmYbY8GgEazTISpiH3s7X8HH3K7hqegEj9rPAlbMYMRwAPjpyHXDitVkOjgPcYV8A8ObyVnUalhZMKDOBDKSDCnBWAY5pMcoNeC3MRzvs1zjkBZgy0wTYWgBb85SJboNYNz4tPj6Kge696DPsB/pfwiddR9BnfwHOz36CR/52I+LDFOikPTdjGubNmIH5s2YibPlSZKUlQ1fKpONSVGiLUFaSi+LibJSW5qKkNBfFXC/JQ1FJPkrKilCmLYFWVwJtWQH0ZXkBJf1yfPE7++fK81GYl4ak+NWICg8V6CLD5yIqfHZAEci7WRPdO/exnRZIdBtXx8xHWMxChMcsQnj0EoRHh2B11FJERC1DZOQKLF+6GKtXLMMMjdIkYLMgPjwKszTTUJyegNfPbIfjypvoPXccuPoDuC+fxTAtTi/dRXUEt1ruF0/MY22B29oq4vJEUE1ct1sA65EJpRgn1UhdX8J8ULq0vNZnoXGbmuEyEioepJSjERkT4fNpCmHjj+Ho2iftN1xulSea07ofg6a9cF0+giud++C48jw+MZ3B0Ec/xpPf/hMkrArCHI0Gi2ZqpN9mQfBMzA8OxsI5sxCyYJ7AlxQXg/wcvgapEPl5WSjIz0FRUQFKSopRWloqKi4uRlFRIUqK81FanBdQZSXKfpblpQUoyMtESlIsYqLCwKd3VGQooiKX3LNie3QirVo5D4G0ctV8rIpcguWRIVgavgShqxYjZPlCLAldgCUhCxCyeD7mzZohsIXMnY1l8+ZKVw+ziPgf/vObLwIj7+C9t3cCAz/ElYvNwOfP4dI724GBM+g7zywkZcoEWDnkhkE2emFH4LG2wWNthXcKgaMRU2MlGrepBS6j6jrSfaSfqlg2mBkO9UmAo5WbAln5JDsKXG6Xzvmr556Cp+cA8OkRDNv2A58fw0cX98H24UGg/y1YP3gBL3c8jmWzNNJdwH4bdpbSNeGTk+LynOnTRcHTpmHW9OmYO2sWFs5fgNAlIVgashRLFi3BgnkLMHf2HMyfR80OqHlzZ2HunGAsmD8HixfNx8IFcxE8MwjTNBpRUJAG97KmT9dgIs2ePQ2BNGt2EKYFazAteBqmBXM5CDOCp2PmzCDMmhGEOTODMDtI+U8WTNdgxfwgiToXp4TD/akR53/1AnrOnQTwNi6fOwDLb3cAV45jwLgP+KgFuNwEr42gqePb2LfcDK90Z7XBY1GBY7NofE1Yr1n/7sDC0ZAxEMnov4Y35eg+DLfpCDymFpECHMcXUYdEyo3SLI8vj6UZX5r4ALDQT+dnHwYjqW7bPjisezBi24MhQnf1FK5Z2nCl6xhGLv8Izo9/iX98vQn/78YyiW7FrwzBopnTpdtAXM3p06Vfh+BRs6cFIVgTJO0Gth2mazSjYuN9+vRpCJoRWNNnBmEiBc0IQtD0wJo+Yzq+TPGzef2ZwTMRPCtYxGVu4z5uU5dZcn3W7FlyvHoutweSZpoGARU0DdODg6EJCoJGE4SgoOmYM2s2Fs2bi4WzZsrDkH1shWmRWBSkEdi+8R/r0fl/XsA1y1vA1V/gqvkk+q1tGLC0YMjaDIe9Ge6ew/D0HJRhWx4rA39K57J/lN0jUXZG2lsmXz/p/bHu3YlsrfDY2jgeTrFwblMrKEKnBEoOA5L2xacF078m/lCPuRlfnthgbRXoeB8M8LC/0EXobHsxYtuHz7t3A5+dhffKy7jSeUrSvpwf/QLm376Cl49ux8q5GiydpcHyOdMQtiAYobOmCYgLgzRYtXA+Fs+cgUUzZ2DhjOmYPyMI86ZPk5Qxpo0x4klLFbBCTVTZ1H08/y7TtGm0utNG9WXe39w5c8RTmDd7DuYGB2Ou/M7TxOXniI+V8xTQvvZAMT668AZw7dfot7yG4Z7XMGA9i0EGyOz0aJoxYmuCw3YITttBuO0H4bExV3G/PIgV2BiT8I+yH1GAu4M6GsjQfKHtjJKaW+G2dHDEN91JgtYGj5nijhZ4rE3w2A7Jl/HYCF3ThIR/ebARZLq5rSJ5yliboOanOW0HMGI9gKudu3Hp/Wdw5fwhDNufw5D1ZXxy4XkMmH8A9L0DDHbjhZZtqMmLxkKN8ueyZDuBWjJd0eIgDRZOUzR/mtL3M3eaBnNmajA7ePKaNUODqVQwXerpGswMUsR7mTtLgwVzg7Bo/gzMm63BnOCxY3iser/+y+q22ymZJUI3ng+vRcHTsJCf7fvd6fZHL9bg/2nMw8VfnoLz0k9g+20bPJdfhefyc7j8/h7gykk4ObuyXbFsTnsTnD7gnJYDcLELQLKjfKAJbEq9Ubq17hA4em9WMjFZ0ZhxkGwHJxFqAtiwJGyWo3Bb2+C2HoHb1gSX/RBc9gNw8Sni84npgk6FYDkKykt/XB4IzIRpgsvaBKe1Cdc698F76Rjw0WkMmDrQ130cw9YX0Nd9FtbftOHCP7bhs64fAp//Fn2mn+KHp57GN7/WiM26JNTlRyIhVCOKD9UgLkSDuFANYkIUcVT56lANwidQWIgGE2nVEg2mUquXTgOlfgcuRy6fjuiVMxGzKlhKrnO7+j38j72je1+sQezyYCSsnI3U8PkoTl6JP2kowrMP/TV+86PjGLb9Cg7bz+Cy/wgfvdeOj949DPSexED3flz5YBvw6VG47IfhsrNONsHFumlrkjrKeuqh6PmozZ3rXL9/hfo6adBUQAl8GzymdgLHkCVDnoTtKFzWNjhtreBTxNFzCCO9B+DsmWrgWuX+eI+U19Im8lja4JZcz1Z4e44Bl0/Bae2QEcADhlZ4L52By34Kn51vAT7+Hlw9r2LY8jIGTS/jWtfL+PziK+gzfB/D1h9jxPYWRmw/xZD1LQxZfyIasP4YA9Z/QD9L21sYsP00oPqtbyGQ+qxv4ZrlJ1OqAfvPMNjzc9FQ79tScpt6b+o+/228Z+7vt/30lvfO8wLr5/i48+9x1fgTDNnehqPnFxiy/Bz9hjfR3/VD9He+jr4LL+LT9zsk5I+B1/H5+09jpHsX0N8BF98VIKlazLo/DLetGR57Czy2I4C9FbAzEsmIpD9cSptL6Tvz3z655clbN8YdyJfioWlkkhV5MrTBY2uHy94OZ08bRnqaMdx7CMO9BzDScxBuG78Arcv4opX8UmVrB6w+WTrgNVPH4KEsx4BLZ3Dt/EF8/uE+eOwd8PQcxWfnd6O/+wBwlfNeNMFBd9l+DJ6eU3DbzmLEfAZDxjMYND6HIdOLGDK9hEHTSxgwviDqNz2PftNzYOm0vgaX9Y1JieeOWF/BiPXlgBq2vIQvU/xsh+0VOO2vSsnPGjA+j6udp/HZhZOyPGR+cfQeBk0vgPLfNtH98doTyX35DYzYvod+wwu4dvE59He9BIfpNcD+A+DS3wNX3wR6X8anv9uDofP7gaEXgMuH0ff+o0DvfpmAxyWd2QyaNcMrsLUBPe1Abwe8tqOKRushH9L+fWdcn2wdbfUBrVqs2yvZzoOd99IEjUwnxg28YXsH3D0dcBC43hYM9R7G4KUDGO69S4CzdQCEy3IcsJyE16zIYz6JoYutwGcvA9dekXSeYeMB4MpR4JM2DBiewUD3DjiYa8eo1iWGko/KH+W2dcBJgHvPXCdP72l4L1OnBGaP6TRgPBtYpueAQDKfhsfSIS473fbx5DbTx//ypH4mP8NpPILhriYMXjyE/vMH0HduPwYuHJRtLgbPzG1g6eDrfI0cTa1sm+j+eFwgyfhFUwtG2GSxHQd6zgI9LwA9LwKW5+E1ncXQuTa4OvmfnJb/xXnhWXi6ngEuHwI+ZvxA6cyW4J3tCLy2VnjtrLPtIo+1XZLavfSABCwVODWkP5XANUnSBvsHNW7TDsB2QEwzb95jP+azcq1w9ByGo3cfXD2cu4/DE46MBi9gpltH947ilz12nWDtwJgUy6T8GPxBbk/iStLCETgrYaNOwGumFOhgP42hzhb0n2dKzxGAjWzTPgwZdsNt3w98fBD4aD/Qsw8u826McO556yE5Dpfa4TA1j4rJrmqWucPSBKd0S3QA5mOBJfek3tuNJe+bT7jmwLIwXy+wlG6Z8fuQvsg+9LQBNnb9HIaz+wBGOvddp8Hzu2U75GnMyslotS/LyHLrtD4lU4MZSTfLa2uCt6cZnh7FDeT/IzAbGKzjb3NC+U9NSpMBpia4OXnrZTYFWjDIjm07Ky1B88Fmo0emNIFc1qPw2DrgsXaIl6ZYO35fFToVNt/1fU0TtYly65IuK61aM9wiZrAc8UnJZGFGCzvYxa3lbyepYOye9E9OAAAKXUlEQVTO4n96CLCz6bYbGpftETgt25S+LemLY6U6obSZ5MfjdM58ifgBwNgMGI8AxjbA1A6YjkmF95hPw2t9Dl7r86OC9TnAchawnAGsp+GxHofHeiygOBNXYB31RVDVSOpReEyq2qUxKtATfHkA8GFA19fn10tnJ7s2lMG2SjcHE7HVnFA2uG+MRKnblEqutgWU/kD2Cd6uxnfFA7noN25nMIvt60BymI+AcrJN63cc153cbuLQpoO49uFeDFw4AKdRGQky0t2E/vP70Xdun+znusvkC2ObOcHqEbjMrFytcNn8dQQum6oWuGxUs5/GghsMcDith31ioKtZkYy35JhLVmblv1IrtkTJ2ecqkfLDcI+maTGop0j5noTuKJwyjIxDyZThZMo4TmUsJ0Py8vAX74ge0m2KBsLWAo+9CR47vyO/a6tMse6wHoWDda6H9bsdTCTxGA8DzNIibNbDgO0g+H44p+FJaAa7vw6n8TuAlUMbmMalgAQznwa0FOxYPCAz2MJ4CHz6wMQwfRu85nZ4zMfhtpyE23JG5LGcgddyGrCcAswnFXgtx8X6yROIT6Fx5La0I5A8oyCpFvXmcrR9p7bzrisJIBuvk7cQd3SuRM0I3M33rW6b6P45/o+u70RyWljxFA9F/nz7MTneYW6TEdFDXc0Y6mwSOY2tgO2YyGVqw3BXMwYuHMLgxcOy32EgcPRC6AbzQUhXsB1uu6qjcNvb/EQQCZ8Kng8+v6giAx0TSYIgDISMqyPSacwYQyAx4BdIdKdhYXMksLymowgkdpUxE4WWmvfnsh4RyB2WdoxYj2GE86Raj8NlYTyBn0XryvZiC2A6CL7uGDby9Rg0V//Pn2Pod38JGB4B6F5aOHanBV4Tx50xHNsBulz0P5VX/NCXZpvusO9pxh/3iPz4HppwNmbFdfLRLZkq7EQ/Ir41/evxxDbkxOI9+Lupt7PcPpqpMmHG960ywie9n654G+QhxgfZePIBoIJwXWlX4PDajiGQ+BDjPvScUGTng5CuciuGu2ndDsPRTVenXdl/6ZSE3vk53DZCIC8exuCFQ7Ls4T3yenY+LDsARoFHxXVeRxUrO7uSWvxEwNTQfbMSNJCIIqOKtytWYF+Tgs2K2xb//7aJ5evnVft7ry9Zp2klKbbB2wUuh4WwncCI5SScttNwWk9KPIDcKG5qq2KgDLsB+w6g639Dc+mHm/Dpm/cBv/vPwPm/BUxPAja+aaQZg6aj6LOcxIDtBJy9TXD37oObEaPeg3D2HoKz97Bsd/U0wdPbDG8P/Wz6qwfkGkpCKTO42QYkdGzATkZ03/jk4A8XQBPCSFj5xFF/tN93yT/7Tu6/Qyo+7CcQUD0nlX02xZtw00U3HYXT2AaHoRUjnMvTTFBOApdOK6XtBED1nITT0IrhzmYMnD+EIU6syvaUb598pjwQ/Cs7AWgH7EdFEsRgIEOktrVoFSj/Chvgt6dFCCjeyy0euIHqhWznb886NMEQm4BDa5hXrNY/JWjnFa/uBJzmE3CYTwpwnt7n4LSdxJCxDUOGFowYm+GSlDC24/YAnd8Gfvc1aKwvrcXHr9Zg4B/WwPvrPwEufh2wPyFu5IitHddsL+Cq/XkMXWrDyKVDGL50GMOXmjAiasZIbzOcvc3wMPLX2wzcCB2nRmCuIwMUDLxMSoSUP9oELoG5XVxcurnjKSCoE/5RAeCe1DmB712+l/UYMJEEjpOALYDspyT44Da2w9HVipHOI1K6DGzrdsDLYFMPrdppwH5Ssh5cbIfzur2n4TC0+YJOhzF4ka91pidyXI7l8RKs4vp1lpgA+sCTQIQadr8Rqi/wwBnP6l+3rV1p7rDJM54mqBvKw451aIL6R9cvkBi7MB8HTGwmnYLXdAqMjLvMPugsx6WryWU7BpetTTw+cY3ZZ8jhZIbtcP36LzD01iZo7K88gI9frcPlV4px7ccV8P7uQcDwdcD2pFgsR+9zGL70IoYvdWDkcitGLhM8RY5LR+HsPQpX71G4exiiVX1X/uB8mqhRGn7RCSJ03DdRhI6Nagmns00xOUnFkkrre6rfZcus3BMJtlOA7XRAeS0n4DYdw0jXUekiYTeJo/uobJNze84AvQzHn4HbegIjxnaRi9HVnjMY5BuJutow0Nkq4jKP4X6v7SS81hPgZ4zdoxqVJswEj26vH4AqiFIq/aYTRnknigDLPkaJJytfPGKiOjjRKBg+TBiPMJ3x6ZREyPkgY1tXyZNk32CzElm9wugqPbpnMXh+C/p/8w1c+/H9+Oz1Omg+evO/ouf1TbC/VoaPf1SIq2/rMPgvG+D44D/D3cl2HccWcS7/Djh7jsHZcxyunhOK+KS0n4bbdgYuyym4zST/NLzss5J+K/ZdUQz7sutg/Pab9JtM2IZjY/k4PLaTAcVKNJE8tlO4m8U5WgLrDDy2iTXU3QFVw4ZjGDGyEc/vfAYe+1mZjsLVcxZO+xk4bKcxYj0l4jK3f36xFX3d7RgwHkO/oQNXO9tEg6bj0j7x2M/AOyre6yl4e1SdhMd+Ah77cZ+OSfeSJCAwCcFOy0grSSs8vrzsV51QPuAJ/TiCldcPpOO+NpVqgccp7XSPA4h9h+ZTCmxScv2oL3jIGbk4xQPnTd0J2J4CrE8Ahocw8v438Ok//QUuv/lVfPKDDfjotbXQXP7VNlx4/d/D9pNG2H5cCts/5KD3zUJ89vYajPzLfwDe+ybAfhA+HQQKtfHKJxq/CH/AM3AaT8JpPA2n8SychufgNLwAp+FFOLtflHWPlbCwn2R8oYdP2vHl7TkBTw/nojwVUC77SUysU3DZT0+h+PmB5ek9g8DyASPgcPlmXb3Yhr6udgwa+f5zfs+zcPc8N6oh6ykMEzT7GTh7n4Pr0vMiLjt6zuKTC0dwzdCBQctJ9JuO49OLraPbhvmw6j3rJ/VeT4MJApTLzocwH8bUMZ864OrpgJuBFztd2TMB5bWdRmCdUqwsLW0AgS51QJ1UuqMC1D3WSQaXAontYPb7SneZWFumaTGiz1meOVfJNqB3G2B5CLj4Dbje+RoGf/1n+Pxn9+Hyj9bA9no9er+/CdY3HoSmv/d1fNa9Dxff/nOY3m7EpV9U4NO3S/HxDwvw0auFGPpBA/CL/w+4sAUwPCMvb4SNczT4fF7pFPY1sDnPhP15eHtegqf3e/D0vg537/fh6X1NrKDHzifhSbhtJ0QuhlJ9UreNV7psx+GwH4NDsmCYCXO7OgaHndc4MYXi5weWq5cZ8SeuE7dR7kunMWQ+BgejYDblwcFy2HwcA4Z2mUxn0Ngh6/771WVX7xmM2E+h33IMV41H8bmhTUquD1iPiz7tOiL7h3tOYdB2Qpb7zB1y3KcXmzFk6YDTfgLey2dE9HIczNJhokTPcTjtXG6H034Uzp4bJN0JtIDK/3/7pWo9Vct5czlRl4nbxuMn/nzVWvvfm7R3L58FPjrrC/cTNHaL8Y2nPtCsWwD7Q4D974Cuv4Tznx/AZz+uxqXXivHx68Xof7MCQ/+4GZ2vPQDDT/4b/i8/+0AQNc98hAAAAABJRU5ErkJggg==;" vertex="1" parent="1">
          <mxGeometry x="10" y="335" width="60" height="44.45" as="geometry" />
        </mxCell>
        <mxCell id="3W4k_Y3KblpX9K18slso-42" value="video" style="text;html=1;align=center;verticalAlign=middle;resizable=0;points=[];autosize=1;strokeColor=none;" vertex="1" parent="1">
          <mxGeometry x="20" y="385" width="40" height="20" as="geometry" />
        </mxCell>
        <mxCell id="3W4k_Y3KblpX9K18slso-43" value="video file interfacce" style="rounded=0;whiteSpace=wrap;html=1;strokeColor=#33FF33;" vertex="1" parent="1">
          <mxGeometry x="160" y="360" width="90" height="40" as="geometry" />
        </mxCell>
        <mxCell id="3W4k_Y3KblpX9K18slso-11" value="" style="endArrow=none;dashed=1;html=1;fillColor=#FF0000;strokeColor=#FF0000;" edge="1" parent="1">
          <mxGeometry width="50" height="50" relative="1" as="geometry">
            <mxPoint x="259.5" y="450" as="sourcePoint" />
            <mxPoint x="259.5" y="240" as="targetPoint" />
          </mxGeometry>
        </mxCell>
      </root>
    </mxGraphModel>
  </diagram>
</mxfile>
